G04 #@! TF.GenerationSoftware,KiCad,Pcbnew,5.1.4+dfsg1-1*
G04 #@! TF.CreationDate,2019-12-22T16:06:28+01:00*
G04 #@! TF.ProjectId,masonjar,6d61736f-6e6a-4617-922e-6b696361645f,rev?*
G04 #@! TF.SameCoordinates,Original*
G04 #@! TF.FileFunction,Legend,Top*
G04 #@! TF.FilePolarity,Positive*
%FSLAX46Y46*%
G04 Gerber Fmt 4.6, Leading zero omitted, Abs format (unit mm)*
G04 Created by KiCad (PCBNEW 5.1.4+dfsg1-1) date 2019-12-22 16:06:28*
%MOMM*%
%LPD*%
G04 APERTURE LIST*
%ADD10C,0.120000*%
G04 APERTURE END LIST*
D10*
X21310000Y-220000D02*
X21310000Y-1550000D01*
X19980000Y-220000D02*
X21310000Y-220000D01*
X18710000Y-220000D02*
X18710000Y-2880000D01*
X18710000Y-2880000D02*
X8490000Y-2880000D01*
X18710000Y-220000D02*
X8490000Y-220000D01*
X8490000Y-220000D02*
X8490000Y-2880000D01*
X1150000Y-10800000D02*
X1150000Y-6800000D01*
X-3050000Y-10800000D02*
X-3050000Y-6800000D01*
X-3737221Y-12340000D02*
X-4062779Y-12340000D01*
X-3737221Y-13360000D02*
X-4062779Y-13360000D01*
X-25295000Y-22120000D02*
X-25295000Y-22500000D01*
X-31715000Y-22120000D02*
X-25295000Y-22120000D01*
X-31715000Y-3880000D02*
X-25295000Y-3880000D01*
X-31715000Y-22120000D02*
X-31715000Y-3880000D01*
X-5970000Y-3880000D02*
X-5970000Y-4880000D01*
X-6750000Y-3880000D02*
X-5970000Y-3880000D01*
X-5970000Y-22120000D02*
X-5970000Y-21120000D01*
X-6750000Y-22120000D02*
X-5970000Y-22120000D01*
X-2650000Y-13290000D02*
X-5100000Y-13290000D01*
X-4450000Y-16510000D02*
X-2650000Y-16510000D01*
X31865000Y-3980000D02*
X25445000Y-3980000D01*
X31865000Y-20100000D02*
X24580000Y-20100000D01*
X31865000Y-3980000D02*
X31865000Y-20100000D01*
X2120000Y-20220000D02*
X2120000Y-19220000D01*
X2900000Y-20220000D02*
X2120000Y-20220000D01*
X2120000Y-3980000D02*
X2120000Y-4980000D01*
X2900000Y-3980000D02*
X2120000Y-3980000D01*
X-21330000Y-2880000D02*
X-21330000Y-1550000D01*
X-20000000Y-2880000D02*
X-21330000Y-2880000D01*
X-18730000Y-2880000D02*
X-18730000Y-220000D01*
X-18730000Y-220000D02*
X-8510000Y-220000D01*
X-18730000Y-2880000D02*
X-8510000Y-2880000D01*
X-8510000Y-2880000D02*
X-8510000Y-220000D01*
X1600000Y-11150000D02*
X1600000Y-16550000D01*
X-1700000Y-11150000D02*
X-1700000Y-16550000D01*
X1600000Y-11150000D02*
X-1700000Y-11150000D01*
X-5250000Y-18300000D02*
X150000Y-18300000D01*
X-5250000Y-21600000D02*
X150000Y-21600000D01*
X-5250000Y-18300000D02*
X-5250000Y-21600000D01*
X-4008578Y-18010000D02*
X-3491422Y-18010000D01*
X-4008578Y-16590000D02*
X-3491422Y-16590000D01*
X2808578Y-21140000D02*
X2291422Y-21140000D01*
X2808578Y-22560000D02*
X2291422Y-22560000D01*
X-3958578Y-6110000D02*
X-3441422Y-6110000D01*
X-3958578Y-4690000D02*
X-3441422Y-4690000D01*
X-141422Y-4690000D02*
X-658578Y-4690000D01*
X-141422Y-6110000D02*
X-658578Y-6110000D01*
X30290000Y-100080000D02*
X30290000Y-100080000D01*
X30290000Y-100210000D02*
X30290000Y-100080000D01*
X30290000Y-100210000D02*
X30290000Y-100210000D01*
X30290000Y-100080000D02*
X30290000Y-100210000D01*
X27750000Y-100080000D02*
X27750000Y-100080000D01*
X27750000Y-100210000D02*
X27750000Y-100080000D01*
X27750000Y-100210000D02*
X27750000Y-100210000D01*
X27750000Y-100080000D02*
X27750000Y-100210000D01*
X31580000Y-100210000D02*
X31980000Y-100210000D01*
X31580000Y-101330000D02*
X31580000Y-100210000D01*
X31980000Y-101330000D02*
X31580000Y-101330000D01*
X31980000Y-100210000D02*
X31980000Y-101330000D01*
X26460000Y-100210000D02*
X31580000Y-100210000D01*
X31580000Y-100210000D02*
X31580000Y-106370000D01*
X26460000Y-100210000D02*
X26460000Y-106370000D01*
X31580000Y-106370000D02*
G75*
G02X26460000Y-106370000I-2560000J0D01*
G01*
X23040000Y-100080000D02*
X23040000Y-100080000D01*
X23040000Y-100210000D02*
X23040000Y-100080000D01*
X23040000Y-100210000D02*
X23040000Y-100210000D01*
X23040000Y-100080000D02*
X23040000Y-100210000D01*
X20500000Y-100080000D02*
X20500000Y-100080000D01*
X20500000Y-100210000D02*
X20500000Y-100080000D01*
X20500000Y-100210000D02*
X20500000Y-100210000D01*
X20500000Y-100080000D02*
X20500000Y-100210000D01*
X24330000Y-100210000D02*
X24730000Y-100210000D01*
X24330000Y-101330000D02*
X24330000Y-100210000D01*
X24730000Y-101330000D02*
X24330000Y-101330000D01*
X24730000Y-100210000D02*
X24730000Y-101330000D01*
X19210000Y-100210000D02*
X24330000Y-100210000D01*
X24330000Y-100210000D02*
X24330000Y-106370000D01*
X19210000Y-100210000D02*
X19210000Y-106370000D01*
X24330000Y-106370000D02*
G75*
G02X19210000Y-106370000I-2560000J0D01*
G01*
X15790000Y-100080000D02*
X15790000Y-100080000D01*
X15790000Y-100210000D02*
X15790000Y-100080000D01*
X15790000Y-100210000D02*
X15790000Y-100210000D01*
X15790000Y-100080000D02*
X15790000Y-100210000D01*
X13250000Y-100080000D02*
X13250000Y-100080000D01*
X13250000Y-100210000D02*
X13250000Y-100080000D01*
X13250000Y-100210000D02*
X13250000Y-100210000D01*
X13250000Y-100080000D02*
X13250000Y-100210000D01*
X17080000Y-100210000D02*
X17480000Y-100210000D01*
X17080000Y-101330000D02*
X17080000Y-100210000D01*
X17480000Y-101330000D02*
X17080000Y-101330000D01*
X17480000Y-100210000D02*
X17480000Y-101330000D01*
X11960000Y-100210000D02*
X17080000Y-100210000D01*
X17080000Y-100210000D02*
X17080000Y-106370000D01*
X11960000Y-100210000D02*
X11960000Y-106370000D01*
X17080000Y-106370000D02*
G75*
G02X11960000Y-106370000I-2560000J0D01*
G01*
X8540000Y-100080000D02*
X8540000Y-100080000D01*
X8540000Y-100210000D02*
X8540000Y-100080000D01*
X8540000Y-100210000D02*
X8540000Y-100210000D01*
X8540000Y-100080000D02*
X8540000Y-100210000D01*
X6000000Y-100080000D02*
X6000000Y-100080000D01*
X6000000Y-100210000D02*
X6000000Y-100080000D01*
X6000000Y-100210000D02*
X6000000Y-100210000D01*
X6000000Y-100080000D02*
X6000000Y-100210000D01*
X9830000Y-100210000D02*
X10230000Y-100210000D01*
X9830000Y-101330000D02*
X9830000Y-100210000D01*
X10230000Y-101330000D02*
X9830000Y-101330000D01*
X10230000Y-100210000D02*
X10230000Y-101330000D01*
X4710000Y-100210000D02*
X9830000Y-100210000D01*
X9830000Y-100210000D02*
X9830000Y-106370000D01*
X4710000Y-100210000D02*
X4710000Y-106370000D01*
X9830000Y-106370000D02*
G75*
G02X4710000Y-106370000I-2560000J0D01*
G01*
X1290000Y-100080000D02*
X1290000Y-100080000D01*
X1290000Y-100210000D02*
X1290000Y-100080000D01*
X1290000Y-100210000D02*
X1290000Y-100210000D01*
X1290000Y-100080000D02*
X1290000Y-100210000D01*
X-1250000Y-100080000D02*
X-1250000Y-100080000D01*
X-1250000Y-100210000D02*
X-1250000Y-100080000D01*
X-1250000Y-100210000D02*
X-1250000Y-100210000D01*
X-1250000Y-100080000D02*
X-1250000Y-100210000D01*
X2580000Y-100210000D02*
X2980000Y-100210000D01*
X2580000Y-101330000D02*
X2580000Y-100210000D01*
X2980000Y-101330000D02*
X2580000Y-101330000D01*
X2980000Y-100210000D02*
X2980000Y-101330000D01*
X-2540000Y-100210000D02*
X2580000Y-100210000D01*
X2580000Y-100210000D02*
X2580000Y-106370000D01*
X-2540000Y-100210000D02*
X-2540000Y-106370000D01*
X2580000Y-106370000D02*
G75*
G02X-2540000Y-106370000I-2560000J0D01*
G01*
X-5960000Y-100080000D02*
X-5960000Y-100080000D01*
X-5960000Y-100210000D02*
X-5960000Y-100080000D01*
X-5960000Y-100210000D02*
X-5960000Y-100210000D01*
X-5960000Y-100080000D02*
X-5960000Y-100210000D01*
X-8500000Y-100080000D02*
X-8500000Y-100080000D01*
X-8500000Y-100210000D02*
X-8500000Y-100080000D01*
X-8500000Y-100210000D02*
X-8500000Y-100210000D01*
X-8500000Y-100080000D02*
X-8500000Y-100210000D01*
X-4670000Y-100210000D02*
X-4270000Y-100210000D01*
X-4670000Y-101330000D02*
X-4670000Y-100210000D01*
X-4270000Y-101330000D02*
X-4670000Y-101330000D01*
X-4270000Y-100210000D02*
X-4270000Y-101330000D01*
X-9790000Y-100210000D02*
X-4670000Y-100210000D01*
X-4670000Y-100210000D02*
X-4670000Y-106370000D01*
X-9790000Y-100210000D02*
X-9790000Y-106370000D01*
X-4670000Y-106370000D02*
G75*
G02X-9790000Y-106370000I-2560000J0D01*
G01*
X-13210000Y-100080000D02*
X-13210000Y-100080000D01*
X-13210000Y-100210000D02*
X-13210000Y-100080000D01*
X-13210000Y-100210000D02*
X-13210000Y-100210000D01*
X-13210000Y-100080000D02*
X-13210000Y-100210000D01*
X-15750000Y-100080000D02*
X-15750000Y-100080000D01*
X-15750000Y-100210000D02*
X-15750000Y-100080000D01*
X-15750000Y-100210000D02*
X-15750000Y-100210000D01*
X-15750000Y-100080000D02*
X-15750000Y-100210000D01*
X-11920000Y-100210000D02*
X-11520000Y-100210000D01*
X-11920000Y-101330000D02*
X-11920000Y-100210000D01*
X-11520000Y-101330000D02*
X-11920000Y-101330000D01*
X-11520000Y-100210000D02*
X-11520000Y-101330000D01*
X-17040000Y-100210000D02*
X-11920000Y-100210000D01*
X-11920000Y-100210000D02*
X-11920000Y-106370000D01*
X-17040000Y-100210000D02*
X-17040000Y-106370000D01*
X-11920000Y-106370000D02*
G75*
G02X-17040000Y-106370000I-2560000J0D01*
G01*
X-20460000Y-100080000D02*
X-20460000Y-100080000D01*
X-20460000Y-100210000D02*
X-20460000Y-100080000D01*
X-20460000Y-100210000D02*
X-20460000Y-100210000D01*
X-20460000Y-100080000D02*
X-20460000Y-100210000D01*
X-23000000Y-100080000D02*
X-23000000Y-100080000D01*
X-23000000Y-100210000D02*
X-23000000Y-100080000D01*
X-23000000Y-100210000D02*
X-23000000Y-100210000D01*
X-23000000Y-100080000D02*
X-23000000Y-100210000D01*
X-19170000Y-100210000D02*
X-18770000Y-100210000D01*
X-19170000Y-101330000D02*
X-19170000Y-100210000D01*
X-18770000Y-101330000D02*
X-19170000Y-101330000D01*
X-18770000Y-100210000D02*
X-18770000Y-101330000D01*
X-24290000Y-100210000D02*
X-19170000Y-100210000D01*
X-19170000Y-100210000D02*
X-19170000Y-106370000D01*
X-24290000Y-100210000D02*
X-24290000Y-106370000D01*
X-19170000Y-106370000D02*
G75*
G02X-24290000Y-106370000I-2560000J0D01*
G01*
X-27710000Y-100080000D02*
X-27710000Y-100080000D01*
X-27710000Y-100210000D02*
X-27710000Y-100080000D01*
X-27710000Y-100210000D02*
X-27710000Y-100210000D01*
X-27710000Y-100080000D02*
X-27710000Y-100210000D01*
X-30250000Y-100080000D02*
X-30250000Y-100080000D01*
X-30250000Y-100210000D02*
X-30250000Y-100080000D01*
X-30250000Y-100210000D02*
X-30250000Y-100210000D01*
X-30250000Y-100080000D02*
X-30250000Y-100210000D01*
X-26420000Y-100210000D02*
X-26020000Y-100210000D01*
X-26420000Y-101330000D02*
X-26420000Y-100210000D01*
X-26020000Y-101330000D02*
X-26420000Y-101330000D01*
X-26020000Y-100210000D02*
X-26020000Y-101330000D01*
X-31540000Y-100210000D02*
X-26420000Y-100210000D01*
X-26420000Y-100210000D02*
X-26420000Y-106370000D01*
X-31540000Y-100210000D02*
X-31540000Y-106370000D01*
X-26420000Y-106370000D02*
G75*
G02X-31540000Y-106370000I-2560000J0D01*
G01*
X30290000Y-87580000D02*
X30290000Y-87580000D01*
X30290000Y-87710000D02*
X30290000Y-87580000D01*
X30290000Y-87710000D02*
X30290000Y-87710000D01*
X30290000Y-87580000D02*
X30290000Y-87710000D01*
X27750000Y-87580000D02*
X27750000Y-87580000D01*
X27750000Y-87710000D02*
X27750000Y-87580000D01*
X27750000Y-87710000D02*
X27750000Y-87710000D01*
X27750000Y-87580000D02*
X27750000Y-87710000D01*
X31580000Y-87710000D02*
X31980000Y-87710000D01*
X31580000Y-88830000D02*
X31580000Y-87710000D01*
X31980000Y-88830000D02*
X31580000Y-88830000D01*
X31980000Y-87710000D02*
X31980000Y-88830000D01*
X26460000Y-87710000D02*
X31580000Y-87710000D01*
X31580000Y-87710000D02*
X31580000Y-93870000D01*
X26460000Y-87710000D02*
X26460000Y-93870000D01*
X31580000Y-93870000D02*
G75*
G02X26460000Y-93870000I-2560000J0D01*
G01*
X23040000Y-87580000D02*
X23040000Y-87580000D01*
X23040000Y-87710000D02*
X23040000Y-87580000D01*
X23040000Y-87710000D02*
X23040000Y-87710000D01*
X23040000Y-87580000D02*
X23040000Y-87710000D01*
X20500000Y-87580000D02*
X20500000Y-87580000D01*
X20500000Y-87710000D02*
X20500000Y-87580000D01*
X20500000Y-87710000D02*
X20500000Y-87710000D01*
X20500000Y-87580000D02*
X20500000Y-87710000D01*
X24330000Y-87710000D02*
X24730000Y-87710000D01*
X24330000Y-88830000D02*
X24330000Y-87710000D01*
X24730000Y-88830000D02*
X24330000Y-88830000D01*
X24730000Y-87710000D02*
X24730000Y-88830000D01*
X19210000Y-87710000D02*
X24330000Y-87710000D01*
X24330000Y-87710000D02*
X24330000Y-93870000D01*
X19210000Y-87710000D02*
X19210000Y-93870000D01*
X24330000Y-93870000D02*
G75*
G02X19210000Y-93870000I-2560000J0D01*
G01*
X15790000Y-87580000D02*
X15790000Y-87580000D01*
X15790000Y-87710000D02*
X15790000Y-87580000D01*
X15790000Y-87710000D02*
X15790000Y-87710000D01*
X15790000Y-87580000D02*
X15790000Y-87710000D01*
X13250000Y-87580000D02*
X13250000Y-87580000D01*
X13250000Y-87710000D02*
X13250000Y-87580000D01*
X13250000Y-87710000D02*
X13250000Y-87710000D01*
X13250000Y-87580000D02*
X13250000Y-87710000D01*
X17080000Y-87710000D02*
X17480000Y-87710000D01*
X17080000Y-88830000D02*
X17080000Y-87710000D01*
X17480000Y-88830000D02*
X17080000Y-88830000D01*
X17480000Y-87710000D02*
X17480000Y-88830000D01*
X11960000Y-87710000D02*
X17080000Y-87710000D01*
X17080000Y-87710000D02*
X17080000Y-93870000D01*
X11960000Y-87710000D02*
X11960000Y-93870000D01*
X17080000Y-93870000D02*
G75*
G02X11960000Y-93870000I-2560000J0D01*
G01*
X8540000Y-87580000D02*
X8540000Y-87580000D01*
X8540000Y-87710000D02*
X8540000Y-87580000D01*
X8540000Y-87710000D02*
X8540000Y-87710000D01*
X8540000Y-87580000D02*
X8540000Y-87710000D01*
X6000000Y-87580000D02*
X6000000Y-87580000D01*
X6000000Y-87710000D02*
X6000000Y-87580000D01*
X6000000Y-87710000D02*
X6000000Y-87710000D01*
X6000000Y-87580000D02*
X6000000Y-87710000D01*
X9830000Y-87710000D02*
X10230000Y-87710000D01*
X9830000Y-88830000D02*
X9830000Y-87710000D01*
X10230000Y-88830000D02*
X9830000Y-88830000D01*
X10230000Y-87710000D02*
X10230000Y-88830000D01*
X4710000Y-87710000D02*
X9830000Y-87710000D01*
X9830000Y-87710000D02*
X9830000Y-93870000D01*
X4710000Y-87710000D02*
X4710000Y-93870000D01*
X9830000Y-93870000D02*
G75*
G02X4710000Y-93870000I-2560000J0D01*
G01*
X1290000Y-87580000D02*
X1290000Y-87580000D01*
X1290000Y-87710000D02*
X1290000Y-87580000D01*
X1290000Y-87710000D02*
X1290000Y-87710000D01*
X1290000Y-87580000D02*
X1290000Y-87710000D01*
X-1250000Y-87580000D02*
X-1250000Y-87580000D01*
X-1250000Y-87710000D02*
X-1250000Y-87580000D01*
X-1250000Y-87710000D02*
X-1250000Y-87710000D01*
X-1250000Y-87580000D02*
X-1250000Y-87710000D01*
X2580000Y-87710000D02*
X2980000Y-87710000D01*
X2580000Y-88830000D02*
X2580000Y-87710000D01*
X2980000Y-88830000D02*
X2580000Y-88830000D01*
X2980000Y-87710000D02*
X2980000Y-88830000D01*
X-2540000Y-87710000D02*
X2580000Y-87710000D01*
X2580000Y-87710000D02*
X2580000Y-93870000D01*
X-2540000Y-87710000D02*
X-2540000Y-93870000D01*
X2580000Y-93870000D02*
G75*
G02X-2540000Y-93870000I-2560000J0D01*
G01*
X-5960000Y-87580000D02*
X-5960000Y-87580000D01*
X-5960000Y-87710000D02*
X-5960000Y-87580000D01*
X-5960000Y-87710000D02*
X-5960000Y-87710000D01*
X-5960000Y-87580000D02*
X-5960000Y-87710000D01*
X-8500000Y-87580000D02*
X-8500000Y-87580000D01*
X-8500000Y-87710000D02*
X-8500000Y-87580000D01*
X-8500000Y-87710000D02*
X-8500000Y-87710000D01*
X-8500000Y-87580000D02*
X-8500000Y-87710000D01*
X-4670000Y-87710000D02*
X-4270000Y-87710000D01*
X-4670000Y-88830000D02*
X-4670000Y-87710000D01*
X-4270000Y-88830000D02*
X-4670000Y-88830000D01*
X-4270000Y-87710000D02*
X-4270000Y-88830000D01*
X-9790000Y-87710000D02*
X-4670000Y-87710000D01*
X-4670000Y-87710000D02*
X-4670000Y-93870000D01*
X-9790000Y-87710000D02*
X-9790000Y-93870000D01*
X-4670000Y-93870000D02*
G75*
G02X-9790000Y-93870000I-2560000J0D01*
G01*
X-13210000Y-87580000D02*
X-13210000Y-87580000D01*
X-13210000Y-87710000D02*
X-13210000Y-87580000D01*
X-13210000Y-87710000D02*
X-13210000Y-87710000D01*
X-13210000Y-87580000D02*
X-13210000Y-87710000D01*
X-15750000Y-87580000D02*
X-15750000Y-87580000D01*
X-15750000Y-87710000D02*
X-15750000Y-87580000D01*
X-15750000Y-87710000D02*
X-15750000Y-87710000D01*
X-15750000Y-87580000D02*
X-15750000Y-87710000D01*
X-11920000Y-87710000D02*
X-11520000Y-87710000D01*
X-11920000Y-88830000D02*
X-11920000Y-87710000D01*
X-11520000Y-88830000D02*
X-11920000Y-88830000D01*
X-11520000Y-87710000D02*
X-11520000Y-88830000D01*
X-17040000Y-87710000D02*
X-11920000Y-87710000D01*
X-11920000Y-87710000D02*
X-11920000Y-93870000D01*
X-17040000Y-87710000D02*
X-17040000Y-93870000D01*
X-11920000Y-93870000D02*
G75*
G02X-17040000Y-93870000I-2560000J0D01*
G01*
X-20460000Y-87580000D02*
X-20460000Y-87580000D01*
X-20460000Y-87710000D02*
X-20460000Y-87580000D01*
X-20460000Y-87710000D02*
X-20460000Y-87710000D01*
X-20460000Y-87580000D02*
X-20460000Y-87710000D01*
X-23000000Y-87580000D02*
X-23000000Y-87580000D01*
X-23000000Y-87710000D02*
X-23000000Y-87580000D01*
X-23000000Y-87710000D02*
X-23000000Y-87710000D01*
X-23000000Y-87580000D02*
X-23000000Y-87710000D01*
X-19170000Y-87710000D02*
X-18770000Y-87710000D01*
X-19170000Y-88830000D02*
X-19170000Y-87710000D01*
X-18770000Y-88830000D02*
X-19170000Y-88830000D01*
X-18770000Y-87710000D02*
X-18770000Y-88830000D01*
X-24290000Y-87710000D02*
X-19170000Y-87710000D01*
X-19170000Y-87710000D02*
X-19170000Y-93870000D01*
X-24290000Y-87710000D02*
X-24290000Y-93870000D01*
X-19170000Y-93870000D02*
G75*
G02X-24290000Y-93870000I-2560000J0D01*
G01*
X-27710000Y-87580000D02*
X-27710000Y-87580000D01*
X-27710000Y-87710000D02*
X-27710000Y-87580000D01*
X-27710000Y-87710000D02*
X-27710000Y-87710000D01*
X-27710000Y-87580000D02*
X-27710000Y-87710000D01*
X-30250000Y-87580000D02*
X-30250000Y-87580000D01*
X-30250000Y-87710000D02*
X-30250000Y-87580000D01*
X-30250000Y-87710000D02*
X-30250000Y-87710000D01*
X-30250000Y-87580000D02*
X-30250000Y-87710000D01*
X-26420000Y-87710000D02*
X-26020000Y-87710000D01*
X-26420000Y-88830000D02*
X-26420000Y-87710000D01*
X-26020000Y-88830000D02*
X-26420000Y-88830000D01*
X-26020000Y-87710000D02*
X-26020000Y-88830000D01*
X-31540000Y-87710000D02*
X-26420000Y-87710000D01*
X-26420000Y-87710000D02*
X-26420000Y-93870000D01*
X-31540000Y-87710000D02*
X-31540000Y-93870000D01*
X-26420000Y-93870000D02*
G75*
G02X-31540000Y-93870000I-2560000J0D01*
G01*
X30290000Y-75080000D02*
X30290000Y-75080000D01*
X30290000Y-75210000D02*
X30290000Y-75080000D01*
X30290000Y-75210000D02*
X30290000Y-75210000D01*
X30290000Y-75080000D02*
X30290000Y-75210000D01*
X27750000Y-75080000D02*
X27750000Y-75080000D01*
X27750000Y-75210000D02*
X27750000Y-75080000D01*
X27750000Y-75210000D02*
X27750000Y-75210000D01*
X27750000Y-75080000D02*
X27750000Y-75210000D01*
X31580000Y-75210000D02*
X31980000Y-75210000D01*
X31580000Y-76330000D02*
X31580000Y-75210000D01*
X31980000Y-76330000D02*
X31580000Y-76330000D01*
X31980000Y-75210000D02*
X31980000Y-76330000D01*
X26460000Y-75210000D02*
X31580000Y-75210000D01*
X31580000Y-75210000D02*
X31580000Y-81370000D01*
X26460000Y-75210000D02*
X26460000Y-81370000D01*
X31580000Y-81370000D02*
G75*
G02X26460000Y-81370000I-2560000J0D01*
G01*
X23040000Y-75080000D02*
X23040000Y-75080000D01*
X23040000Y-75210000D02*
X23040000Y-75080000D01*
X23040000Y-75210000D02*
X23040000Y-75210000D01*
X23040000Y-75080000D02*
X23040000Y-75210000D01*
X20500000Y-75080000D02*
X20500000Y-75080000D01*
X20500000Y-75210000D02*
X20500000Y-75080000D01*
X20500000Y-75210000D02*
X20500000Y-75210000D01*
X20500000Y-75080000D02*
X20500000Y-75210000D01*
X24330000Y-75210000D02*
X24730000Y-75210000D01*
X24330000Y-76330000D02*
X24330000Y-75210000D01*
X24730000Y-76330000D02*
X24330000Y-76330000D01*
X24730000Y-75210000D02*
X24730000Y-76330000D01*
X19210000Y-75210000D02*
X24330000Y-75210000D01*
X24330000Y-75210000D02*
X24330000Y-81370000D01*
X19210000Y-75210000D02*
X19210000Y-81370000D01*
X24330000Y-81370000D02*
G75*
G02X19210000Y-81370000I-2560000J0D01*
G01*
X15790000Y-75080000D02*
X15790000Y-75080000D01*
X15790000Y-75210000D02*
X15790000Y-75080000D01*
X15790000Y-75210000D02*
X15790000Y-75210000D01*
X15790000Y-75080000D02*
X15790000Y-75210000D01*
X13250000Y-75080000D02*
X13250000Y-75080000D01*
X13250000Y-75210000D02*
X13250000Y-75080000D01*
X13250000Y-75210000D02*
X13250000Y-75210000D01*
X13250000Y-75080000D02*
X13250000Y-75210000D01*
X17080000Y-75210000D02*
X17480000Y-75210000D01*
X17080000Y-76330000D02*
X17080000Y-75210000D01*
X17480000Y-76330000D02*
X17080000Y-76330000D01*
X17480000Y-75210000D02*
X17480000Y-76330000D01*
X11960000Y-75210000D02*
X17080000Y-75210000D01*
X17080000Y-75210000D02*
X17080000Y-81370000D01*
X11960000Y-75210000D02*
X11960000Y-81370000D01*
X17080000Y-81370000D02*
G75*
G02X11960000Y-81370000I-2560000J0D01*
G01*
X8540000Y-75080000D02*
X8540000Y-75080000D01*
X8540000Y-75210000D02*
X8540000Y-75080000D01*
X8540000Y-75210000D02*
X8540000Y-75210000D01*
X8540000Y-75080000D02*
X8540000Y-75210000D01*
X6000000Y-75080000D02*
X6000000Y-75080000D01*
X6000000Y-75210000D02*
X6000000Y-75080000D01*
X6000000Y-75210000D02*
X6000000Y-75210000D01*
X6000000Y-75080000D02*
X6000000Y-75210000D01*
X9830000Y-75210000D02*
X10230000Y-75210000D01*
X9830000Y-76330000D02*
X9830000Y-75210000D01*
X10230000Y-76330000D02*
X9830000Y-76330000D01*
X10230000Y-75210000D02*
X10230000Y-76330000D01*
X4710000Y-75210000D02*
X9830000Y-75210000D01*
X9830000Y-75210000D02*
X9830000Y-81370000D01*
X4710000Y-75210000D02*
X4710000Y-81370000D01*
X9830000Y-81370000D02*
G75*
G02X4710000Y-81370000I-2560000J0D01*
G01*
X1290000Y-75080000D02*
X1290000Y-75080000D01*
X1290000Y-75210000D02*
X1290000Y-75080000D01*
X1290000Y-75210000D02*
X1290000Y-75210000D01*
X1290000Y-75080000D02*
X1290000Y-75210000D01*
X-1250000Y-75080000D02*
X-1250000Y-75080000D01*
X-1250000Y-75210000D02*
X-1250000Y-75080000D01*
X-1250000Y-75210000D02*
X-1250000Y-75210000D01*
X-1250000Y-75080000D02*
X-1250000Y-75210000D01*
X2580000Y-75210000D02*
X2980000Y-75210000D01*
X2580000Y-76330000D02*
X2580000Y-75210000D01*
X2980000Y-76330000D02*
X2580000Y-76330000D01*
X2980000Y-75210000D02*
X2980000Y-76330000D01*
X-2540000Y-75210000D02*
X2580000Y-75210000D01*
X2580000Y-75210000D02*
X2580000Y-81370000D01*
X-2540000Y-75210000D02*
X-2540000Y-81370000D01*
X2580000Y-81370000D02*
G75*
G02X-2540000Y-81370000I-2560000J0D01*
G01*
X-5960000Y-75080000D02*
X-5960000Y-75080000D01*
X-5960000Y-75210000D02*
X-5960000Y-75080000D01*
X-5960000Y-75210000D02*
X-5960000Y-75210000D01*
X-5960000Y-75080000D02*
X-5960000Y-75210000D01*
X-8500000Y-75080000D02*
X-8500000Y-75080000D01*
X-8500000Y-75210000D02*
X-8500000Y-75080000D01*
X-8500000Y-75210000D02*
X-8500000Y-75210000D01*
X-8500000Y-75080000D02*
X-8500000Y-75210000D01*
X-4670000Y-75210000D02*
X-4270000Y-75210000D01*
X-4670000Y-76330000D02*
X-4670000Y-75210000D01*
X-4270000Y-76330000D02*
X-4670000Y-76330000D01*
X-4270000Y-75210000D02*
X-4270000Y-76330000D01*
X-9790000Y-75210000D02*
X-4670000Y-75210000D01*
X-4670000Y-75210000D02*
X-4670000Y-81370000D01*
X-9790000Y-75210000D02*
X-9790000Y-81370000D01*
X-4670000Y-81370000D02*
G75*
G02X-9790000Y-81370000I-2560000J0D01*
G01*
X-13210000Y-75080000D02*
X-13210000Y-75080000D01*
X-13210000Y-75210000D02*
X-13210000Y-75080000D01*
X-13210000Y-75210000D02*
X-13210000Y-75210000D01*
X-13210000Y-75080000D02*
X-13210000Y-75210000D01*
X-15750000Y-75080000D02*
X-15750000Y-75080000D01*
X-15750000Y-75210000D02*
X-15750000Y-75080000D01*
X-15750000Y-75210000D02*
X-15750000Y-75210000D01*
X-15750000Y-75080000D02*
X-15750000Y-75210000D01*
X-11920000Y-75210000D02*
X-11520000Y-75210000D01*
X-11920000Y-76330000D02*
X-11920000Y-75210000D01*
X-11520000Y-76330000D02*
X-11920000Y-76330000D01*
X-11520000Y-75210000D02*
X-11520000Y-76330000D01*
X-17040000Y-75210000D02*
X-11920000Y-75210000D01*
X-11920000Y-75210000D02*
X-11920000Y-81370000D01*
X-17040000Y-75210000D02*
X-17040000Y-81370000D01*
X-11920000Y-81370000D02*
G75*
G02X-17040000Y-81370000I-2560000J0D01*
G01*
X-20460000Y-75080000D02*
X-20460000Y-75080000D01*
X-20460000Y-75210000D02*
X-20460000Y-75080000D01*
X-20460000Y-75210000D02*
X-20460000Y-75210000D01*
X-20460000Y-75080000D02*
X-20460000Y-75210000D01*
X-23000000Y-75080000D02*
X-23000000Y-75080000D01*
X-23000000Y-75210000D02*
X-23000000Y-75080000D01*
X-23000000Y-75210000D02*
X-23000000Y-75210000D01*
X-23000000Y-75080000D02*
X-23000000Y-75210000D01*
X-19170000Y-75210000D02*
X-18770000Y-75210000D01*
X-19170000Y-76330000D02*
X-19170000Y-75210000D01*
X-18770000Y-76330000D02*
X-19170000Y-76330000D01*
X-18770000Y-75210000D02*
X-18770000Y-76330000D01*
X-24290000Y-75210000D02*
X-19170000Y-75210000D01*
X-19170000Y-75210000D02*
X-19170000Y-81370000D01*
X-24290000Y-75210000D02*
X-24290000Y-81370000D01*
X-19170000Y-81370000D02*
G75*
G02X-24290000Y-81370000I-2560000J0D01*
G01*
X-27710000Y-75080000D02*
X-27710000Y-75080000D01*
X-27710000Y-75210000D02*
X-27710000Y-75080000D01*
X-27710000Y-75210000D02*
X-27710000Y-75210000D01*
X-27710000Y-75080000D02*
X-27710000Y-75210000D01*
X-30250000Y-75080000D02*
X-30250000Y-75080000D01*
X-30250000Y-75210000D02*
X-30250000Y-75080000D01*
X-30250000Y-75210000D02*
X-30250000Y-75210000D01*
X-30250000Y-75080000D02*
X-30250000Y-75210000D01*
X-26420000Y-75210000D02*
X-26020000Y-75210000D01*
X-26420000Y-76330000D02*
X-26420000Y-75210000D01*
X-26020000Y-76330000D02*
X-26420000Y-76330000D01*
X-26020000Y-75210000D02*
X-26020000Y-76330000D01*
X-31540000Y-75210000D02*
X-26420000Y-75210000D01*
X-26420000Y-75210000D02*
X-26420000Y-81370000D01*
X-31540000Y-75210000D02*
X-31540000Y-81370000D01*
X-26420000Y-81370000D02*
G75*
G02X-31540000Y-81370000I-2560000J0D01*
G01*
X30290000Y-62580000D02*
X30290000Y-62580000D01*
X30290000Y-62710000D02*
X30290000Y-62580000D01*
X30290000Y-62710000D02*
X30290000Y-62710000D01*
X30290000Y-62580000D02*
X30290000Y-62710000D01*
X27750000Y-62580000D02*
X27750000Y-62580000D01*
X27750000Y-62710000D02*
X27750000Y-62580000D01*
X27750000Y-62710000D02*
X27750000Y-62710000D01*
X27750000Y-62580000D02*
X27750000Y-62710000D01*
X31580000Y-62710000D02*
X31980000Y-62710000D01*
X31580000Y-63830000D02*
X31580000Y-62710000D01*
X31980000Y-63830000D02*
X31580000Y-63830000D01*
X31980000Y-62710000D02*
X31980000Y-63830000D01*
X26460000Y-62710000D02*
X31580000Y-62710000D01*
X31580000Y-62710000D02*
X31580000Y-68870000D01*
X26460000Y-62710000D02*
X26460000Y-68870000D01*
X31580000Y-68870000D02*
G75*
G02X26460000Y-68870000I-2560000J0D01*
G01*
X23040000Y-62580000D02*
X23040000Y-62580000D01*
X23040000Y-62710000D02*
X23040000Y-62580000D01*
X23040000Y-62710000D02*
X23040000Y-62710000D01*
X23040000Y-62580000D02*
X23040000Y-62710000D01*
X20500000Y-62580000D02*
X20500000Y-62580000D01*
X20500000Y-62710000D02*
X20500000Y-62580000D01*
X20500000Y-62710000D02*
X20500000Y-62710000D01*
X20500000Y-62580000D02*
X20500000Y-62710000D01*
X24330000Y-62710000D02*
X24730000Y-62710000D01*
X24330000Y-63830000D02*
X24330000Y-62710000D01*
X24730000Y-63830000D02*
X24330000Y-63830000D01*
X24730000Y-62710000D02*
X24730000Y-63830000D01*
X19210000Y-62710000D02*
X24330000Y-62710000D01*
X24330000Y-62710000D02*
X24330000Y-68870000D01*
X19210000Y-62710000D02*
X19210000Y-68870000D01*
X24330000Y-68870000D02*
G75*
G02X19210000Y-68870000I-2560000J0D01*
G01*
X15790000Y-62580000D02*
X15790000Y-62580000D01*
X15790000Y-62710000D02*
X15790000Y-62580000D01*
X15790000Y-62710000D02*
X15790000Y-62710000D01*
X15790000Y-62580000D02*
X15790000Y-62710000D01*
X13250000Y-62580000D02*
X13250000Y-62580000D01*
X13250000Y-62710000D02*
X13250000Y-62580000D01*
X13250000Y-62710000D02*
X13250000Y-62710000D01*
X13250000Y-62580000D02*
X13250000Y-62710000D01*
X17080000Y-62710000D02*
X17480000Y-62710000D01*
X17080000Y-63830000D02*
X17080000Y-62710000D01*
X17480000Y-63830000D02*
X17080000Y-63830000D01*
X17480000Y-62710000D02*
X17480000Y-63830000D01*
X11960000Y-62710000D02*
X17080000Y-62710000D01*
X17080000Y-62710000D02*
X17080000Y-68870000D01*
X11960000Y-62710000D02*
X11960000Y-68870000D01*
X17080000Y-68870000D02*
G75*
G02X11960000Y-68870000I-2560000J0D01*
G01*
X8540000Y-62580000D02*
X8540000Y-62580000D01*
X8540000Y-62710000D02*
X8540000Y-62580000D01*
X8540000Y-62710000D02*
X8540000Y-62710000D01*
X8540000Y-62580000D02*
X8540000Y-62710000D01*
X6000000Y-62580000D02*
X6000000Y-62580000D01*
X6000000Y-62710000D02*
X6000000Y-62580000D01*
X6000000Y-62710000D02*
X6000000Y-62710000D01*
X6000000Y-62580000D02*
X6000000Y-62710000D01*
X9830000Y-62710000D02*
X10230000Y-62710000D01*
X9830000Y-63830000D02*
X9830000Y-62710000D01*
X10230000Y-63830000D02*
X9830000Y-63830000D01*
X10230000Y-62710000D02*
X10230000Y-63830000D01*
X4710000Y-62710000D02*
X9830000Y-62710000D01*
X9830000Y-62710000D02*
X9830000Y-68870000D01*
X4710000Y-62710000D02*
X4710000Y-68870000D01*
X9830000Y-68870000D02*
G75*
G02X4710000Y-68870000I-2560000J0D01*
G01*
X1290000Y-62580000D02*
X1290000Y-62580000D01*
X1290000Y-62710000D02*
X1290000Y-62580000D01*
X1290000Y-62710000D02*
X1290000Y-62710000D01*
X1290000Y-62580000D02*
X1290000Y-62710000D01*
X-1250000Y-62580000D02*
X-1250000Y-62580000D01*
X-1250000Y-62710000D02*
X-1250000Y-62580000D01*
X-1250000Y-62710000D02*
X-1250000Y-62710000D01*
X-1250000Y-62580000D02*
X-1250000Y-62710000D01*
X2580000Y-62710000D02*
X2980000Y-62710000D01*
X2580000Y-63830000D02*
X2580000Y-62710000D01*
X2980000Y-63830000D02*
X2580000Y-63830000D01*
X2980000Y-62710000D02*
X2980000Y-63830000D01*
X-2540000Y-62710000D02*
X2580000Y-62710000D01*
X2580000Y-62710000D02*
X2580000Y-68870000D01*
X-2540000Y-62710000D02*
X-2540000Y-68870000D01*
X2580000Y-68870000D02*
G75*
G02X-2540000Y-68870000I-2560000J0D01*
G01*
X-5960000Y-62580000D02*
X-5960000Y-62580000D01*
X-5960000Y-62710000D02*
X-5960000Y-62580000D01*
X-5960000Y-62710000D02*
X-5960000Y-62710000D01*
X-5960000Y-62580000D02*
X-5960000Y-62710000D01*
X-8500000Y-62580000D02*
X-8500000Y-62580000D01*
X-8500000Y-62710000D02*
X-8500000Y-62580000D01*
X-8500000Y-62710000D02*
X-8500000Y-62710000D01*
X-8500000Y-62580000D02*
X-8500000Y-62710000D01*
X-4670000Y-62710000D02*
X-4270000Y-62710000D01*
X-4670000Y-63830000D02*
X-4670000Y-62710000D01*
X-4270000Y-63830000D02*
X-4670000Y-63830000D01*
X-4270000Y-62710000D02*
X-4270000Y-63830000D01*
X-9790000Y-62710000D02*
X-4670000Y-62710000D01*
X-4670000Y-62710000D02*
X-4670000Y-68870000D01*
X-9790000Y-62710000D02*
X-9790000Y-68870000D01*
X-4670000Y-68870000D02*
G75*
G02X-9790000Y-68870000I-2560000J0D01*
G01*
X-13210000Y-62580000D02*
X-13210000Y-62580000D01*
X-13210000Y-62710000D02*
X-13210000Y-62580000D01*
X-13210000Y-62710000D02*
X-13210000Y-62710000D01*
X-13210000Y-62580000D02*
X-13210000Y-62710000D01*
X-15750000Y-62580000D02*
X-15750000Y-62580000D01*
X-15750000Y-62710000D02*
X-15750000Y-62580000D01*
X-15750000Y-62710000D02*
X-15750000Y-62710000D01*
X-15750000Y-62580000D02*
X-15750000Y-62710000D01*
X-11920000Y-62710000D02*
X-11520000Y-62710000D01*
X-11920000Y-63830000D02*
X-11920000Y-62710000D01*
X-11520000Y-63830000D02*
X-11920000Y-63830000D01*
X-11520000Y-62710000D02*
X-11520000Y-63830000D01*
X-17040000Y-62710000D02*
X-11920000Y-62710000D01*
X-11920000Y-62710000D02*
X-11920000Y-68870000D01*
X-17040000Y-62710000D02*
X-17040000Y-68870000D01*
X-11920000Y-68870000D02*
G75*
G02X-17040000Y-68870000I-2560000J0D01*
G01*
X-20460000Y-62580000D02*
X-20460000Y-62580000D01*
X-20460000Y-62710000D02*
X-20460000Y-62580000D01*
X-20460000Y-62710000D02*
X-20460000Y-62710000D01*
X-20460000Y-62580000D02*
X-20460000Y-62710000D01*
X-23000000Y-62580000D02*
X-23000000Y-62580000D01*
X-23000000Y-62710000D02*
X-23000000Y-62580000D01*
X-23000000Y-62710000D02*
X-23000000Y-62710000D01*
X-23000000Y-62580000D02*
X-23000000Y-62710000D01*
X-19170000Y-62710000D02*
X-18770000Y-62710000D01*
X-19170000Y-63830000D02*
X-19170000Y-62710000D01*
X-18770000Y-63830000D02*
X-19170000Y-63830000D01*
X-18770000Y-62710000D02*
X-18770000Y-63830000D01*
X-24290000Y-62710000D02*
X-19170000Y-62710000D01*
X-19170000Y-62710000D02*
X-19170000Y-68870000D01*
X-24290000Y-62710000D02*
X-24290000Y-68870000D01*
X-19170000Y-68870000D02*
G75*
G02X-24290000Y-68870000I-2560000J0D01*
G01*
X-27710000Y-62580000D02*
X-27710000Y-62580000D01*
X-27710000Y-62710000D02*
X-27710000Y-62580000D01*
X-27710000Y-62710000D02*
X-27710000Y-62710000D01*
X-27710000Y-62580000D02*
X-27710000Y-62710000D01*
X-30250000Y-62580000D02*
X-30250000Y-62580000D01*
X-30250000Y-62710000D02*
X-30250000Y-62580000D01*
X-30250000Y-62710000D02*
X-30250000Y-62710000D01*
X-30250000Y-62580000D02*
X-30250000Y-62710000D01*
X-26420000Y-62710000D02*
X-26020000Y-62710000D01*
X-26420000Y-63830000D02*
X-26420000Y-62710000D01*
X-26020000Y-63830000D02*
X-26420000Y-63830000D01*
X-26020000Y-62710000D02*
X-26020000Y-63830000D01*
X-31540000Y-62710000D02*
X-26420000Y-62710000D01*
X-26420000Y-62710000D02*
X-26420000Y-68870000D01*
X-31540000Y-62710000D02*
X-31540000Y-68870000D01*
X-26420000Y-68870000D02*
G75*
G02X-31540000Y-68870000I-2560000J0D01*
G01*
X30290000Y-50080000D02*
X30290000Y-50080000D01*
X30290000Y-50210000D02*
X30290000Y-50080000D01*
X30290000Y-50210000D02*
X30290000Y-50210000D01*
X30290000Y-50080000D02*
X30290000Y-50210000D01*
X27750000Y-50080000D02*
X27750000Y-50080000D01*
X27750000Y-50210000D02*
X27750000Y-50080000D01*
X27750000Y-50210000D02*
X27750000Y-50210000D01*
X27750000Y-50080000D02*
X27750000Y-50210000D01*
X31580000Y-50210000D02*
X31980000Y-50210000D01*
X31580000Y-51330000D02*
X31580000Y-50210000D01*
X31980000Y-51330000D02*
X31580000Y-51330000D01*
X31980000Y-50210000D02*
X31980000Y-51330000D01*
X26460000Y-50210000D02*
X31580000Y-50210000D01*
X31580000Y-50210000D02*
X31580000Y-56370000D01*
X26460000Y-50210000D02*
X26460000Y-56370000D01*
X31580000Y-56370000D02*
G75*
G02X26460000Y-56370000I-2560000J0D01*
G01*
X23040000Y-50080000D02*
X23040000Y-50080000D01*
X23040000Y-50210000D02*
X23040000Y-50080000D01*
X23040000Y-50210000D02*
X23040000Y-50210000D01*
X23040000Y-50080000D02*
X23040000Y-50210000D01*
X20500000Y-50080000D02*
X20500000Y-50080000D01*
X20500000Y-50210000D02*
X20500000Y-50080000D01*
X20500000Y-50210000D02*
X20500000Y-50210000D01*
X20500000Y-50080000D02*
X20500000Y-50210000D01*
X24330000Y-50210000D02*
X24730000Y-50210000D01*
X24330000Y-51330000D02*
X24330000Y-50210000D01*
X24730000Y-51330000D02*
X24330000Y-51330000D01*
X24730000Y-50210000D02*
X24730000Y-51330000D01*
X19210000Y-50210000D02*
X24330000Y-50210000D01*
X24330000Y-50210000D02*
X24330000Y-56370000D01*
X19210000Y-50210000D02*
X19210000Y-56370000D01*
X24330000Y-56370000D02*
G75*
G02X19210000Y-56370000I-2560000J0D01*
G01*
X15790000Y-50080000D02*
X15790000Y-50080000D01*
X15790000Y-50210000D02*
X15790000Y-50080000D01*
X15790000Y-50210000D02*
X15790000Y-50210000D01*
X15790000Y-50080000D02*
X15790000Y-50210000D01*
X13250000Y-50080000D02*
X13250000Y-50080000D01*
X13250000Y-50210000D02*
X13250000Y-50080000D01*
X13250000Y-50210000D02*
X13250000Y-50210000D01*
X13250000Y-50080000D02*
X13250000Y-50210000D01*
X17080000Y-50210000D02*
X17480000Y-50210000D01*
X17080000Y-51330000D02*
X17080000Y-50210000D01*
X17480000Y-51330000D02*
X17080000Y-51330000D01*
X17480000Y-50210000D02*
X17480000Y-51330000D01*
X11960000Y-50210000D02*
X17080000Y-50210000D01*
X17080000Y-50210000D02*
X17080000Y-56370000D01*
X11960000Y-50210000D02*
X11960000Y-56370000D01*
X17080000Y-56370000D02*
G75*
G02X11960000Y-56370000I-2560000J0D01*
G01*
X8540000Y-50080000D02*
X8540000Y-50080000D01*
X8540000Y-50210000D02*
X8540000Y-50080000D01*
X8540000Y-50210000D02*
X8540000Y-50210000D01*
X8540000Y-50080000D02*
X8540000Y-50210000D01*
X6000000Y-50080000D02*
X6000000Y-50080000D01*
X6000000Y-50210000D02*
X6000000Y-50080000D01*
X6000000Y-50210000D02*
X6000000Y-50210000D01*
X6000000Y-50080000D02*
X6000000Y-50210000D01*
X9830000Y-50210000D02*
X10230000Y-50210000D01*
X9830000Y-51330000D02*
X9830000Y-50210000D01*
X10230000Y-51330000D02*
X9830000Y-51330000D01*
X10230000Y-50210000D02*
X10230000Y-51330000D01*
X4710000Y-50210000D02*
X9830000Y-50210000D01*
X9830000Y-50210000D02*
X9830000Y-56370000D01*
X4710000Y-50210000D02*
X4710000Y-56370000D01*
X9830000Y-56370000D02*
G75*
G02X4710000Y-56370000I-2560000J0D01*
G01*
X1290000Y-50080000D02*
X1290000Y-50080000D01*
X1290000Y-50210000D02*
X1290000Y-50080000D01*
X1290000Y-50210000D02*
X1290000Y-50210000D01*
X1290000Y-50080000D02*
X1290000Y-50210000D01*
X-1250000Y-50080000D02*
X-1250000Y-50080000D01*
X-1250000Y-50210000D02*
X-1250000Y-50080000D01*
X-1250000Y-50210000D02*
X-1250000Y-50210000D01*
X-1250000Y-50080000D02*
X-1250000Y-50210000D01*
X2580000Y-50210000D02*
X2980000Y-50210000D01*
X2580000Y-51330000D02*
X2580000Y-50210000D01*
X2980000Y-51330000D02*
X2580000Y-51330000D01*
X2980000Y-50210000D02*
X2980000Y-51330000D01*
X-2540000Y-50210000D02*
X2580000Y-50210000D01*
X2580000Y-50210000D02*
X2580000Y-56370000D01*
X-2540000Y-50210000D02*
X-2540000Y-56370000D01*
X2580000Y-56370000D02*
G75*
G02X-2540000Y-56370000I-2560000J0D01*
G01*
X-5960000Y-50080000D02*
X-5960000Y-50080000D01*
X-5960000Y-50210000D02*
X-5960000Y-50080000D01*
X-5960000Y-50210000D02*
X-5960000Y-50210000D01*
X-5960000Y-50080000D02*
X-5960000Y-50210000D01*
X-8500000Y-50080000D02*
X-8500000Y-50080000D01*
X-8500000Y-50210000D02*
X-8500000Y-50080000D01*
X-8500000Y-50210000D02*
X-8500000Y-50210000D01*
X-8500000Y-50080000D02*
X-8500000Y-50210000D01*
X-4670000Y-50210000D02*
X-4270000Y-50210000D01*
X-4670000Y-51330000D02*
X-4670000Y-50210000D01*
X-4270000Y-51330000D02*
X-4670000Y-51330000D01*
X-4270000Y-50210000D02*
X-4270000Y-51330000D01*
X-9790000Y-50210000D02*
X-4670000Y-50210000D01*
X-4670000Y-50210000D02*
X-4670000Y-56370000D01*
X-9790000Y-50210000D02*
X-9790000Y-56370000D01*
X-4670000Y-56370000D02*
G75*
G02X-9790000Y-56370000I-2560000J0D01*
G01*
X-13210000Y-50080000D02*
X-13210000Y-50080000D01*
X-13210000Y-50210000D02*
X-13210000Y-50080000D01*
X-13210000Y-50210000D02*
X-13210000Y-50210000D01*
X-13210000Y-50080000D02*
X-13210000Y-50210000D01*
X-15750000Y-50080000D02*
X-15750000Y-50080000D01*
X-15750000Y-50210000D02*
X-15750000Y-50080000D01*
X-15750000Y-50210000D02*
X-15750000Y-50210000D01*
X-15750000Y-50080000D02*
X-15750000Y-50210000D01*
X-11920000Y-50210000D02*
X-11520000Y-50210000D01*
X-11920000Y-51330000D02*
X-11920000Y-50210000D01*
X-11520000Y-51330000D02*
X-11920000Y-51330000D01*
X-11520000Y-50210000D02*
X-11520000Y-51330000D01*
X-17040000Y-50210000D02*
X-11920000Y-50210000D01*
X-11920000Y-50210000D02*
X-11920000Y-56370000D01*
X-17040000Y-50210000D02*
X-17040000Y-56370000D01*
X-11920000Y-56370000D02*
G75*
G02X-17040000Y-56370000I-2560000J0D01*
G01*
X-20460000Y-50080000D02*
X-20460000Y-50080000D01*
X-20460000Y-50210000D02*
X-20460000Y-50080000D01*
X-20460000Y-50210000D02*
X-20460000Y-50210000D01*
X-20460000Y-50080000D02*
X-20460000Y-50210000D01*
X-23000000Y-50080000D02*
X-23000000Y-50080000D01*
X-23000000Y-50210000D02*
X-23000000Y-50080000D01*
X-23000000Y-50210000D02*
X-23000000Y-50210000D01*
X-23000000Y-50080000D02*
X-23000000Y-50210000D01*
X-19170000Y-50210000D02*
X-18770000Y-50210000D01*
X-19170000Y-51330000D02*
X-19170000Y-50210000D01*
X-18770000Y-51330000D02*
X-19170000Y-51330000D01*
X-18770000Y-50210000D02*
X-18770000Y-51330000D01*
X-24290000Y-50210000D02*
X-19170000Y-50210000D01*
X-19170000Y-50210000D02*
X-19170000Y-56370000D01*
X-24290000Y-50210000D02*
X-24290000Y-56370000D01*
X-19170000Y-56370000D02*
G75*
G02X-24290000Y-56370000I-2560000J0D01*
G01*
X-27710000Y-50080000D02*
X-27710000Y-50080000D01*
X-27710000Y-50210000D02*
X-27710000Y-50080000D01*
X-27710000Y-50210000D02*
X-27710000Y-50210000D01*
X-27710000Y-50080000D02*
X-27710000Y-50210000D01*
X-30250000Y-50080000D02*
X-30250000Y-50080000D01*
X-30250000Y-50210000D02*
X-30250000Y-50080000D01*
X-30250000Y-50210000D02*
X-30250000Y-50210000D01*
X-30250000Y-50080000D02*
X-30250000Y-50210000D01*
X-26420000Y-50210000D02*
X-26020000Y-50210000D01*
X-26420000Y-51330000D02*
X-26420000Y-50210000D01*
X-26020000Y-51330000D02*
X-26420000Y-51330000D01*
X-26020000Y-50210000D02*
X-26020000Y-51330000D01*
X-31540000Y-50210000D02*
X-26420000Y-50210000D01*
X-26420000Y-50210000D02*
X-26420000Y-56370000D01*
X-31540000Y-50210000D02*
X-31540000Y-56370000D01*
X-26420000Y-56370000D02*
G75*
G02X-31540000Y-56370000I-2560000J0D01*
G01*
X30290000Y-37580000D02*
X30290000Y-37580000D01*
X30290000Y-37710000D02*
X30290000Y-37580000D01*
X30290000Y-37710000D02*
X30290000Y-37710000D01*
X30290000Y-37580000D02*
X30290000Y-37710000D01*
X27750000Y-37580000D02*
X27750000Y-37580000D01*
X27750000Y-37710000D02*
X27750000Y-37580000D01*
X27750000Y-37710000D02*
X27750000Y-37710000D01*
X27750000Y-37580000D02*
X27750000Y-37710000D01*
X31580000Y-37710000D02*
X31980000Y-37710000D01*
X31580000Y-38830000D02*
X31580000Y-37710000D01*
X31980000Y-38830000D02*
X31580000Y-38830000D01*
X31980000Y-37710000D02*
X31980000Y-38830000D01*
X26460000Y-37710000D02*
X31580000Y-37710000D01*
X31580000Y-37710000D02*
X31580000Y-43870000D01*
X26460000Y-37710000D02*
X26460000Y-43870000D01*
X31580000Y-43870000D02*
G75*
G02X26460000Y-43870000I-2560000J0D01*
G01*
X23040000Y-37580000D02*
X23040000Y-37580000D01*
X23040000Y-37710000D02*
X23040000Y-37580000D01*
X23040000Y-37710000D02*
X23040000Y-37710000D01*
X23040000Y-37580000D02*
X23040000Y-37710000D01*
X20500000Y-37580000D02*
X20500000Y-37580000D01*
X20500000Y-37710000D02*
X20500000Y-37580000D01*
X20500000Y-37710000D02*
X20500000Y-37710000D01*
X20500000Y-37580000D02*
X20500000Y-37710000D01*
X24330000Y-37710000D02*
X24730000Y-37710000D01*
X24330000Y-38830000D02*
X24330000Y-37710000D01*
X24730000Y-38830000D02*
X24330000Y-38830000D01*
X24730000Y-37710000D02*
X24730000Y-38830000D01*
X19210000Y-37710000D02*
X24330000Y-37710000D01*
X24330000Y-37710000D02*
X24330000Y-43870000D01*
X19210000Y-37710000D02*
X19210000Y-43870000D01*
X24330000Y-43870000D02*
G75*
G02X19210000Y-43870000I-2560000J0D01*
G01*
X15790000Y-37580000D02*
X15790000Y-37580000D01*
X15790000Y-37710000D02*
X15790000Y-37580000D01*
X15790000Y-37710000D02*
X15790000Y-37710000D01*
X15790000Y-37580000D02*
X15790000Y-37710000D01*
X13250000Y-37580000D02*
X13250000Y-37580000D01*
X13250000Y-37710000D02*
X13250000Y-37580000D01*
X13250000Y-37710000D02*
X13250000Y-37710000D01*
X13250000Y-37580000D02*
X13250000Y-37710000D01*
X17080000Y-37710000D02*
X17480000Y-37710000D01*
X17080000Y-38830000D02*
X17080000Y-37710000D01*
X17480000Y-38830000D02*
X17080000Y-38830000D01*
X17480000Y-37710000D02*
X17480000Y-38830000D01*
X11960000Y-37710000D02*
X17080000Y-37710000D01*
X17080000Y-37710000D02*
X17080000Y-43870000D01*
X11960000Y-37710000D02*
X11960000Y-43870000D01*
X17080000Y-43870000D02*
G75*
G02X11960000Y-43870000I-2560000J0D01*
G01*
X8540000Y-37580000D02*
X8540000Y-37580000D01*
X8540000Y-37710000D02*
X8540000Y-37580000D01*
X8540000Y-37710000D02*
X8540000Y-37710000D01*
X8540000Y-37580000D02*
X8540000Y-37710000D01*
X6000000Y-37580000D02*
X6000000Y-37580000D01*
X6000000Y-37710000D02*
X6000000Y-37580000D01*
X6000000Y-37710000D02*
X6000000Y-37710000D01*
X6000000Y-37580000D02*
X6000000Y-37710000D01*
X9830000Y-37710000D02*
X10230000Y-37710000D01*
X9830000Y-38830000D02*
X9830000Y-37710000D01*
X10230000Y-38830000D02*
X9830000Y-38830000D01*
X10230000Y-37710000D02*
X10230000Y-38830000D01*
X4710000Y-37710000D02*
X9830000Y-37710000D01*
X9830000Y-37710000D02*
X9830000Y-43870000D01*
X4710000Y-37710000D02*
X4710000Y-43870000D01*
X9830000Y-43870000D02*
G75*
G02X4710000Y-43870000I-2560000J0D01*
G01*
X1290000Y-37580000D02*
X1290000Y-37580000D01*
X1290000Y-37710000D02*
X1290000Y-37580000D01*
X1290000Y-37710000D02*
X1290000Y-37710000D01*
X1290000Y-37580000D02*
X1290000Y-37710000D01*
X-1250000Y-37580000D02*
X-1250000Y-37580000D01*
X-1250000Y-37710000D02*
X-1250000Y-37580000D01*
X-1250000Y-37710000D02*
X-1250000Y-37710000D01*
X-1250000Y-37580000D02*
X-1250000Y-37710000D01*
X2580000Y-37710000D02*
X2980000Y-37710000D01*
X2580000Y-38830000D02*
X2580000Y-37710000D01*
X2980000Y-38830000D02*
X2580000Y-38830000D01*
X2980000Y-37710000D02*
X2980000Y-38830000D01*
X-2540000Y-37710000D02*
X2580000Y-37710000D01*
X2580000Y-37710000D02*
X2580000Y-43870000D01*
X-2540000Y-37710000D02*
X-2540000Y-43870000D01*
X2580000Y-43870000D02*
G75*
G02X-2540000Y-43870000I-2560000J0D01*
G01*
X-5960000Y-37580000D02*
X-5960000Y-37580000D01*
X-5960000Y-37710000D02*
X-5960000Y-37580000D01*
X-5960000Y-37710000D02*
X-5960000Y-37710000D01*
X-5960000Y-37580000D02*
X-5960000Y-37710000D01*
X-8500000Y-37580000D02*
X-8500000Y-37580000D01*
X-8500000Y-37710000D02*
X-8500000Y-37580000D01*
X-8500000Y-37710000D02*
X-8500000Y-37710000D01*
X-8500000Y-37580000D02*
X-8500000Y-37710000D01*
X-4670000Y-37710000D02*
X-4270000Y-37710000D01*
X-4670000Y-38830000D02*
X-4670000Y-37710000D01*
X-4270000Y-38830000D02*
X-4670000Y-38830000D01*
X-4270000Y-37710000D02*
X-4270000Y-38830000D01*
X-9790000Y-37710000D02*
X-4670000Y-37710000D01*
X-4670000Y-37710000D02*
X-4670000Y-43870000D01*
X-9790000Y-37710000D02*
X-9790000Y-43870000D01*
X-4670000Y-43870000D02*
G75*
G02X-9790000Y-43870000I-2560000J0D01*
G01*
X-13210000Y-37580000D02*
X-13210000Y-37580000D01*
X-13210000Y-37710000D02*
X-13210000Y-37580000D01*
X-13210000Y-37710000D02*
X-13210000Y-37710000D01*
X-13210000Y-37580000D02*
X-13210000Y-37710000D01*
X-15750000Y-37580000D02*
X-15750000Y-37580000D01*
X-15750000Y-37710000D02*
X-15750000Y-37580000D01*
X-15750000Y-37710000D02*
X-15750000Y-37710000D01*
X-15750000Y-37580000D02*
X-15750000Y-37710000D01*
X-11920000Y-37710000D02*
X-11520000Y-37710000D01*
X-11920000Y-38830000D02*
X-11920000Y-37710000D01*
X-11520000Y-38830000D02*
X-11920000Y-38830000D01*
X-11520000Y-37710000D02*
X-11520000Y-38830000D01*
X-17040000Y-37710000D02*
X-11920000Y-37710000D01*
X-11920000Y-37710000D02*
X-11920000Y-43870000D01*
X-17040000Y-37710000D02*
X-17040000Y-43870000D01*
X-11920000Y-43870000D02*
G75*
G02X-17040000Y-43870000I-2560000J0D01*
G01*
X-20460000Y-37580000D02*
X-20460000Y-37580000D01*
X-20460000Y-37710000D02*
X-20460000Y-37580000D01*
X-20460000Y-37710000D02*
X-20460000Y-37710000D01*
X-20460000Y-37580000D02*
X-20460000Y-37710000D01*
X-23000000Y-37580000D02*
X-23000000Y-37580000D01*
X-23000000Y-37710000D02*
X-23000000Y-37580000D01*
X-23000000Y-37710000D02*
X-23000000Y-37710000D01*
X-23000000Y-37580000D02*
X-23000000Y-37710000D01*
X-19170000Y-37710000D02*
X-18770000Y-37710000D01*
X-19170000Y-38830000D02*
X-19170000Y-37710000D01*
X-18770000Y-38830000D02*
X-19170000Y-38830000D01*
X-18770000Y-37710000D02*
X-18770000Y-38830000D01*
X-24290000Y-37710000D02*
X-19170000Y-37710000D01*
X-19170000Y-37710000D02*
X-19170000Y-43870000D01*
X-24290000Y-37710000D02*
X-24290000Y-43870000D01*
X-19170000Y-43870000D02*
G75*
G02X-24290000Y-43870000I-2560000J0D01*
G01*
X-27710000Y-37580000D02*
X-27710000Y-37580000D01*
X-27710000Y-37710000D02*
X-27710000Y-37580000D01*
X-27710000Y-37710000D02*
X-27710000Y-37710000D01*
X-27710000Y-37580000D02*
X-27710000Y-37710000D01*
X-30250000Y-37580000D02*
X-30250000Y-37580000D01*
X-30250000Y-37710000D02*
X-30250000Y-37580000D01*
X-30250000Y-37710000D02*
X-30250000Y-37710000D01*
X-30250000Y-37580000D02*
X-30250000Y-37710000D01*
X-26420000Y-37710000D02*
X-26020000Y-37710000D01*
X-26420000Y-38830000D02*
X-26420000Y-37710000D01*
X-26020000Y-38830000D02*
X-26420000Y-38830000D01*
X-26020000Y-37710000D02*
X-26020000Y-38830000D01*
X-31540000Y-37710000D02*
X-26420000Y-37710000D01*
X-26420000Y-37710000D02*
X-26420000Y-43870000D01*
X-31540000Y-37710000D02*
X-31540000Y-43870000D01*
X-26420000Y-43870000D02*
G75*
G02X-31540000Y-43870000I-2560000J0D01*
G01*
X-27710000Y-25080000D02*
X-27710000Y-25080000D01*
X-27710000Y-25210000D02*
X-27710000Y-25080000D01*
X-27710000Y-25210000D02*
X-27710000Y-25210000D01*
X-27710000Y-25080000D02*
X-27710000Y-25210000D01*
X-30250000Y-25080000D02*
X-30250000Y-25080000D01*
X-30250000Y-25210000D02*
X-30250000Y-25080000D01*
X-30250000Y-25210000D02*
X-30250000Y-25210000D01*
X-30250000Y-25080000D02*
X-30250000Y-25210000D01*
X-26420000Y-25210000D02*
X-26020000Y-25210000D01*
X-26420000Y-26330000D02*
X-26420000Y-25210000D01*
X-26020000Y-26330000D02*
X-26420000Y-26330000D01*
X-26020000Y-25210000D02*
X-26020000Y-26330000D01*
X-31540000Y-25210000D02*
X-26420000Y-25210000D01*
X-26420000Y-25210000D02*
X-26420000Y-31370000D01*
X-31540000Y-25210000D02*
X-31540000Y-31370000D01*
X-26420000Y-31370000D02*
G75*
G02X-31540000Y-31370000I-2560000J0D01*
G01*
X30290000Y-25080000D02*
X30290000Y-25080000D01*
X30290000Y-25210000D02*
X30290000Y-25080000D01*
X30290000Y-25210000D02*
X30290000Y-25210000D01*
X30290000Y-25080000D02*
X30290000Y-25210000D01*
X27750000Y-25080000D02*
X27750000Y-25080000D01*
X27750000Y-25210000D02*
X27750000Y-25080000D01*
X27750000Y-25210000D02*
X27750000Y-25210000D01*
X27750000Y-25080000D02*
X27750000Y-25210000D01*
X31580000Y-25210000D02*
X31980000Y-25210000D01*
X31580000Y-26330000D02*
X31580000Y-25210000D01*
X31980000Y-26330000D02*
X31580000Y-26330000D01*
X31980000Y-25210000D02*
X31980000Y-26330000D01*
X26460000Y-25210000D02*
X31580000Y-25210000D01*
X31580000Y-25210000D02*
X31580000Y-31370000D01*
X26460000Y-25210000D02*
X26460000Y-31370000D01*
X31580000Y-31370000D02*
G75*
G02X26460000Y-31370000I-2560000J0D01*
G01*
X23040000Y-25080000D02*
X23040000Y-25080000D01*
X23040000Y-25210000D02*
X23040000Y-25080000D01*
X23040000Y-25210000D02*
X23040000Y-25210000D01*
X23040000Y-25080000D02*
X23040000Y-25210000D01*
X20500000Y-25080000D02*
X20500000Y-25080000D01*
X20500000Y-25210000D02*
X20500000Y-25080000D01*
X20500000Y-25210000D02*
X20500000Y-25210000D01*
X20500000Y-25080000D02*
X20500000Y-25210000D01*
X24330000Y-25210000D02*
X24730000Y-25210000D01*
X24330000Y-26330000D02*
X24330000Y-25210000D01*
X24730000Y-26330000D02*
X24330000Y-26330000D01*
X24730000Y-25210000D02*
X24730000Y-26330000D01*
X19210000Y-25210000D02*
X24330000Y-25210000D01*
X24330000Y-25210000D02*
X24330000Y-31370000D01*
X19210000Y-25210000D02*
X19210000Y-31370000D01*
X24330000Y-31370000D02*
G75*
G02X19210000Y-31370000I-2560000J0D01*
G01*
X15790000Y-25080000D02*
X15790000Y-25080000D01*
X15790000Y-25210000D02*
X15790000Y-25080000D01*
X15790000Y-25210000D02*
X15790000Y-25210000D01*
X15790000Y-25080000D02*
X15790000Y-25210000D01*
X13250000Y-25080000D02*
X13250000Y-25080000D01*
X13250000Y-25210000D02*
X13250000Y-25080000D01*
X13250000Y-25210000D02*
X13250000Y-25210000D01*
X13250000Y-25080000D02*
X13250000Y-25210000D01*
X17080000Y-25210000D02*
X17480000Y-25210000D01*
X17080000Y-26330000D02*
X17080000Y-25210000D01*
X17480000Y-26330000D02*
X17080000Y-26330000D01*
X17480000Y-25210000D02*
X17480000Y-26330000D01*
X11960000Y-25210000D02*
X17080000Y-25210000D01*
X17080000Y-25210000D02*
X17080000Y-31370000D01*
X11960000Y-25210000D02*
X11960000Y-31370000D01*
X17080000Y-31370000D02*
G75*
G02X11960000Y-31370000I-2560000J0D01*
G01*
X8540000Y-25080000D02*
X8540000Y-25080000D01*
X8540000Y-25210000D02*
X8540000Y-25080000D01*
X8540000Y-25210000D02*
X8540000Y-25210000D01*
X8540000Y-25080000D02*
X8540000Y-25210000D01*
X6000000Y-25080000D02*
X6000000Y-25080000D01*
X6000000Y-25210000D02*
X6000000Y-25080000D01*
X6000000Y-25210000D02*
X6000000Y-25210000D01*
X6000000Y-25080000D02*
X6000000Y-25210000D01*
X9830000Y-25210000D02*
X10230000Y-25210000D01*
X9830000Y-26330000D02*
X9830000Y-25210000D01*
X10230000Y-26330000D02*
X9830000Y-26330000D01*
X10230000Y-25210000D02*
X10230000Y-26330000D01*
X4710000Y-25210000D02*
X9830000Y-25210000D01*
X9830000Y-25210000D02*
X9830000Y-31370000D01*
X4710000Y-25210000D02*
X4710000Y-31370000D01*
X9830000Y-31370000D02*
G75*
G02X4710000Y-31370000I-2560000J0D01*
G01*
X1290000Y-25080000D02*
X1290000Y-25080000D01*
X1290000Y-25210000D02*
X1290000Y-25080000D01*
X1290000Y-25210000D02*
X1290000Y-25210000D01*
X1290000Y-25080000D02*
X1290000Y-25210000D01*
X-1250000Y-25080000D02*
X-1250000Y-25080000D01*
X-1250000Y-25210000D02*
X-1250000Y-25080000D01*
X-1250000Y-25210000D02*
X-1250000Y-25210000D01*
X-1250000Y-25080000D02*
X-1250000Y-25210000D01*
X2580000Y-25210000D02*
X2980000Y-25210000D01*
X2580000Y-26330000D02*
X2580000Y-25210000D01*
X2980000Y-26330000D02*
X2580000Y-26330000D01*
X2980000Y-25210000D02*
X2980000Y-26330000D01*
X-2540000Y-25210000D02*
X2580000Y-25210000D01*
X2580000Y-25210000D02*
X2580000Y-31370000D01*
X-2540000Y-25210000D02*
X-2540000Y-31370000D01*
X2580000Y-31370000D02*
G75*
G02X-2540000Y-31370000I-2560000J0D01*
G01*
X-5960000Y-25080000D02*
X-5960000Y-25080000D01*
X-5960000Y-25210000D02*
X-5960000Y-25080000D01*
X-5960000Y-25210000D02*
X-5960000Y-25210000D01*
X-5960000Y-25080000D02*
X-5960000Y-25210000D01*
X-8500000Y-25080000D02*
X-8500000Y-25080000D01*
X-8500000Y-25210000D02*
X-8500000Y-25080000D01*
X-8500000Y-25210000D02*
X-8500000Y-25210000D01*
X-8500000Y-25080000D02*
X-8500000Y-25210000D01*
X-4670000Y-25210000D02*
X-4270000Y-25210000D01*
X-4670000Y-26330000D02*
X-4670000Y-25210000D01*
X-4270000Y-26330000D02*
X-4670000Y-26330000D01*
X-4270000Y-25210000D02*
X-4270000Y-26330000D01*
X-9790000Y-25210000D02*
X-4670000Y-25210000D01*
X-4670000Y-25210000D02*
X-4670000Y-31370000D01*
X-9790000Y-25210000D02*
X-9790000Y-31370000D01*
X-4670000Y-31370000D02*
G75*
G02X-9790000Y-31370000I-2560000J0D01*
G01*
X-13210000Y-25080000D02*
X-13210000Y-25080000D01*
X-13210000Y-25210000D02*
X-13210000Y-25080000D01*
X-13210000Y-25210000D02*
X-13210000Y-25210000D01*
X-13210000Y-25080000D02*
X-13210000Y-25210000D01*
X-15750000Y-25080000D02*
X-15750000Y-25080000D01*
X-15750000Y-25210000D02*
X-15750000Y-25080000D01*
X-15750000Y-25210000D02*
X-15750000Y-25210000D01*
X-15750000Y-25080000D02*
X-15750000Y-25210000D01*
X-11920000Y-25210000D02*
X-11520000Y-25210000D01*
X-11920000Y-26330000D02*
X-11920000Y-25210000D01*
X-11520000Y-26330000D02*
X-11920000Y-26330000D01*
X-11520000Y-25210000D02*
X-11520000Y-26330000D01*
X-17040000Y-25210000D02*
X-11920000Y-25210000D01*
X-11920000Y-25210000D02*
X-11920000Y-31370000D01*
X-17040000Y-25210000D02*
X-17040000Y-31370000D01*
X-11920000Y-31370000D02*
G75*
G02X-17040000Y-31370000I-2560000J0D01*
G01*
X-20460000Y-25080000D02*
X-20460000Y-25080000D01*
X-20460000Y-25210000D02*
X-20460000Y-25080000D01*
X-20460000Y-25210000D02*
X-20460000Y-25210000D01*
X-20460000Y-25080000D02*
X-20460000Y-25210000D01*
X-23000000Y-25080000D02*
X-23000000Y-25080000D01*
X-23000000Y-25210000D02*
X-23000000Y-25080000D01*
X-23000000Y-25210000D02*
X-23000000Y-25210000D01*
X-23000000Y-25080000D02*
X-23000000Y-25210000D01*
X-19170000Y-25210000D02*
X-18770000Y-25210000D01*
X-19170000Y-26330000D02*
X-19170000Y-25210000D01*
X-18770000Y-26330000D02*
X-19170000Y-26330000D01*
X-18770000Y-25210000D02*
X-18770000Y-26330000D01*
X-24290000Y-25210000D02*
X-19170000Y-25210000D01*
X-19170000Y-25210000D02*
X-19170000Y-31370000D01*
X-24290000Y-25210000D02*
X-24290000Y-31370000D01*
X-19170000Y-31370000D02*
G75*
G02X-24290000Y-31370000I-2560000J0D01*
G01*
M02*
