G04 #@! TF.GenerationSoftware,KiCad,Pcbnew,5.1.4+dfsg1-1*
G04 #@! TF.CreationDate,2019-12-22T16:06:28+01:00*
G04 #@! TF.ProjectId,masonjar,6d61736f-6e6a-4617-922e-6b696361645f,rev?*
G04 #@! TF.SameCoordinates,Original*
G04 #@! TF.FileFunction,Legend,Bot*
G04 #@! TF.FilePolarity,Positive*
%FSLAX46Y46*%
G04 Gerber Fmt 4.6, Leading zero omitted, Abs format (unit mm)*
G04 Created by KiCad (PCBNEW 5.1.4+dfsg1-1) date 2019-12-22 16:06:28*
%MOMM*%
%LPD*%
G04 APERTURE LIST*
%ADD10C,0.150000*%
%ADD11C,0.250000*%
%ADD12C,0.500000*%
%ADD13C,0.300000*%
%ADD14C,0.120000*%
G04 APERTURE END LIST*
D10*
X11364404Y-19877380D02*
X11364404Y-18877380D01*
X10792976Y-19877380D01*
X10792976Y-18877380D01*
X10316785Y-19877380D02*
X10316785Y-19210714D01*
X10316785Y-18877380D02*
X10364404Y-18925000D01*
X10316785Y-18972619D01*
X10269166Y-18925000D01*
X10316785Y-18877380D01*
X10316785Y-18972619D01*
X9840595Y-19877380D02*
X9840595Y-18877380D01*
X9745357Y-19496428D02*
X9459642Y-19877380D01*
X9459642Y-19210714D02*
X9840595Y-19591666D01*
X8888214Y-19877380D02*
X8983452Y-19829761D01*
X9031071Y-19734523D01*
X9031071Y-18877380D01*
X8078690Y-19877380D02*
X8078690Y-19353571D01*
X8126309Y-19258333D01*
X8221547Y-19210714D01*
X8412023Y-19210714D01*
X8507261Y-19258333D01*
X8078690Y-19829761D02*
X8173928Y-19877380D01*
X8412023Y-19877380D01*
X8507261Y-19829761D01*
X8554880Y-19734523D01*
X8554880Y-19639285D01*
X8507261Y-19544047D01*
X8412023Y-19496428D01*
X8173928Y-19496428D01*
X8078690Y-19448809D01*
X7650119Y-19829761D02*
X7554880Y-19877380D01*
X7364404Y-19877380D01*
X7269166Y-19829761D01*
X7221547Y-19734523D01*
X7221547Y-19686904D01*
X7269166Y-19591666D01*
X7364404Y-19544047D01*
X7507261Y-19544047D01*
X7602500Y-19496428D01*
X7650119Y-19401190D01*
X7650119Y-19353571D01*
X7602500Y-19258333D01*
X7507261Y-19210714D01*
X7364404Y-19210714D01*
X7269166Y-19258333D01*
X5697738Y-19353571D02*
X6031071Y-19353571D01*
X6031071Y-19877380D02*
X6031071Y-18877380D01*
X5554880Y-18877380D01*
X4745357Y-19877380D02*
X4745357Y-19353571D01*
X4792976Y-19258333D01*
X4888214Y-19210714D01*
X5078690Y-19210714D01*
X5173928Y-19258333D01*
X4745357Y-19829761D02*
X4840595Y-19877380D01*
X5078690Y-19877380D01*
X5173928Y-19829761D01*
X5221547Y-19734523D01*
X5221547Y-19639285D01*
X5173928Y-19544047D01*
X5078690Y-19496428D01*
X4840595Y-19496428D01*
X4745357Y-19448809D01*
X3840595Y-19210714D02*
X3840595Y-19877380D01*
X4269166Y-19210714D02*
X4269166Y-19734523D01*
X4221547Y-19829761D01*
X4126309Y-19877380D01*
X3983452Y-19877380D01*
X3888214Y-19829761D01*
X3840595Y-19782142D01*
X3507261Y-19210714D02*
X3126309Y-19210714D01*
X3364404Y-18877380D02*
X3364404Y-19734523D01*
X3316785Y-19829761D01*
X3221547Y-19877380D01*
X3126309Y-19877380D01*
X2792976Y-19877380D02*
X2792976Y-18877380D01*
X2364404Y-19877380D02*
X2364404Y-19353571D01*
X2412023Y-19258333D01*
X2507261Y-19210714D01*
X2650119Y-19210714D01*
X2745357Y-19258333D01*
X2792976Y-19305952D01*
X1173928Y-18972619D02*
X1126309Y-18925000D01*
X1031071Y-18877380D01*
X792976Y-18877380D01*
X697738Y-18925000D01*
X650119Y-18972619D01*
X602500Y-19067857D01*
X602500Y-19163095D01*
X650119Y-19305952D01*
X1221547Y-19877380D01*
X602500Y-19877380D01*
X-16547Y-18877380D02*
X-111785Y-18877380D01*
X-207023Y-18925000D01*
X-254642Y-18972619D01*
X-302261Y-19067857D01*
X-349880Y-19258333D01*
X-349880Y-19496428D01*
X-302261Y-19686904D01*
X-254642Y-19782142D01*
X-207023Y-19829761D01*
X-111785Y-19877380D01*
X-16547Y-19877380D01*
X78690Y-19829761D01*
X126309Y-19782142D01*
X173928Y-19686904D01*
X221547Y-19496428D01*
X221547Y-19258333D01*
X173928Y-19067857D01*
X126309Y-18972619D01*
X78690Y-18925000D01*
X-16547Y-18877380D01*
X-1302261Y-19877380D02*
X-730833Y-19877380D01*
X-1016547Y-19877380D02*
X-1016547Y-18877380D01*
X-921309Y-19020238D01*
X-826071Y-19115476D01*
X-730833Y-19163095D01*
X-1778452Y-19877380D02*
X-1968928Y-19877380D01*
X-2064166Y-19829761D01*
X-2111785Y-19782142D01*
X-2207023Y-19639285D01*
X-2254642Y-19448809D01*
X-2254642Y-19067857D01*
X-2207023Y-18972619D01*
X-2159404Y-18925000D01*
X-2064166Y-18877380D01*
X-1873690Y-18877380D01*
X-1778452Y-18925000D01*
X-1730833Y-18972619D01*
X-1683214Y-19067857D01*
X-1683214Y-19305952D01*
X-1730833Y-19401190D01*
X-1778452Y-19448809D01*
X-1873690Y-19496428D01*
X-2064166Y-19496428D01*
X-2159404Y-19448809D01*
X-2207023Y-19401190D01*
X-2254642Y-19305952D01*
X10935833Y-20860714D02*
X10935833Y-21670238D01*
X10983452Y-21765476D01*
X11031071Y-21813095D01*
X11126309Y-21860714D01*
X11269166Y-21860714D01*
X11364404Y-21813095D01*
X10935833Y-21479761D02*
X11031071Y-21527380D01*
X11221547Y-21527380D01*
X11316785Y-21479761D01*
X11364404Y-21432142D01*
X11412023Y-21336904D01*
X11412023Y-21051190D01*
X11364404Y-20955952D01*
X11316785Y-20908333D01*
X11221547Y-20860714D01*
X11031071Y-20860714D01*
X10935833Y-20908333D01*
X10459642Y-21527380D02*
X10459642Y-20860714D01*
X10459642Y-20527380D02*
X10507261Y-20575000D01*
X10459642Y-20622619D01*
X10412023Y-20575000D01*
X10459642Y-20527380D01*
X10459642Y-20622619D01*
X10126309Y-20860714D02*
X9745357Y-20860714D01*
X9983452Y-20527380D02*
X9983452Y-21384523D01*
X9935833Y-21479761D01*
X9840595Y-21527380D01*
X9745357Y-21527380D01*
X9412023Y-21527380D02*
X9412023Y-20527380D01*
X8983452Y-21527380D02*
X8983452Y-21003571D01*
X9031071Y-20908333D01*
X9126309Y-20860714D01*
X9269166Y-20860714D01*
X9364404Y-20908333D01*
X9412023Y-20955952D01*
X8078690Y-20860714D02*
X8078690Y-21527380D01*
X8507261Y-20860714D02*
X8507261Y-21384523D01*
X8459642Y-21479761D01*
X8364404Y-21527380D01*
X8221547Y-21527380D01*
X8126309Y-21479761D01*
X8078690Y-21432142D01*
X7602500Y-21527380D02*
X7602500Y-20527380D01*
X7602500Y-20908333D02*
X7507261Y-20860714D01*
X7316785Y-20860714D01*
X7221547Y-20908333D01*
X7173928Y-20955952D01*
X7126309Y-21051190D01*
X7126309Y-21336904D01*
X7173928Y-21432142D01*
X7221547Y-21479761D01*
X7316785Y-21527380D01*
X7507261Y-21527380D01*
X7602500Y-21479761D01*
X6697738Y-21432142D02*
X6650119Y-21479761D01*
X6697738Y-21527380D01*
X6745357Y-21479761D01*
X6697738Y-21432142D01*
X6697738Y-21527380D01*
X5792976Y-21479761D02*
X5888214Y-21527380D01*
X6078690Y-21527380D01*
X6173928Y-21479761D01*
X6221547Y-21432142D01*
X6269166Y-21336904D01*
X6269166Y-21051190D01*
X6221547Y-20955952D01*
X6173928Y-20908333D01*
X6078690Y-20860714D01*
X5888214Y-20860714D01*
X5792976Y-20908333D01*
X5221547Y-21527380D02*
X5316785Y-21479761D01*
X5364404Y-21432142D01*
X5412023Y-21336904D01*
X5412023Y-21051190D01*
X5364404Y-20955952D01*
X5316785Y-20908333D01*
X5221547Y-20860714D01*
X5078690Y-20860714D01*
X4983452Y-20908333D01*
X4935833Y-20955952D01*
X4888214Y-21051190D01*
X4888214Y-21336904D01*
X4935833Y-21432142D01*
X4983452Y-21479761D01*
X5078690Y-21527380D01*
X5221547Y-21527380D01*
X4459642Y-21527380D02*
X4459642Y-20860714D01*
X4459642Y-20955952D02*
X4412023Y-20908333D01*
X4316785Y-20860714D01*
X4173928Y-20860714D01*
X4078690Y-20908333D01*
X4031071Y-21003571D01*
X4031071Y-21527380D01*
X4031071Y-21003571D02*
X3983452Y-20908333D01*
X3888214Y-20860714D01*
X3745357Y-20860714D01*
X3650119Y-20908333D01*
X3602500Y-21003571D01*
X3602500Y-21527380D01*
X2412023Y-20479761D02*
X3269166Y-21765476D01*
X2078690Y-21527380D02*
X2078690Y-20527380D01*
X1507261Y-21527380D01*
X1507261Y-20527380D01*
X1031071Y-21527380D02*
X1031071Y-20860714D01*
X1031071Y-20527380D02*
X1078690Y-20575000D01*
X1031071Y-20622619D01*
X983452Y-20575000D01*
X1031071Y-20527380D01*
X1031071Y-20622619D01*
X554880Y-21527380D02*
X554880Y-20527380D01*
X459642Y-21146428D02*
X173928Y-21527380D01*
X173928Y-20860714D02*
X554880Y-21241666D01*
X-397499Y-21527380D02*
X-302261Y-21479761D01*
X-254642Y-21384523D01*
X-254642Y-20527380D01*
X-1207023Y-21527380D02*
X-1207023Y-21003571D01*
X-1159404Y-20908333D01*
X-1064166Y-20860714D01*
X-873690Y-20860714D01*
X-778452Y-20908333D01*
X-1207023Y-21479761D02*
X-1111785Y-21527380D01*
X-873690Y-21527380D01*
X-778452Y-21479761D01*
X-730833Y-21384523D01*
X-730833Y-21289285D01*
X-778452Y-21194047D01*
X-873690Y-21146428D01*
X-1111785Y-21146428D01*
X-1207023Y-21098809D01*
X-1635595Y-21479761D02*
X-1730833Y-21527380D01*
X-1921309Y-21527380D01*
X-2016547Y-21479761D01*
X-2064166Y-21384523D01*
X-2064166Y-21336904D01*
X-2016547Y-21241666D01*
X-1921309Y-21194047D01*
X-1778452Y-21194047D01*
X-1683214Y-21146428D01*
X-1635595Y-21051190D01*
X-1635595Y-21003571D01*
X-1683214Y-20908333D01*
X-1778452Y-20860714D01*
X-1921309Y-20860714D01*
X-2016547Y-20908333D01*
X-2826071Y-21003571D02*
X-2492738Y-21003571D01*
X-2492738Y-21527380D02*
X-2492738Y-20527380D01*
X-2968928Y-20527380D01*
X-3778452Y-21527380D02*
X-3778452Y-21003571D01*
X-3730833Y-20908333D01*
X-3635595Y-20860714D01*
X-3445119Y-20860714D01*
X-3349880Y-20908333D01*
X-3778452Y-21479761D02*
X-3683214Y-21527380D01*
X-3445119Y-21527380D01*
X-3349880Y-21479761D01*
X-3302261Y-21384523D01*
X-3302261Y-21289285D01*
X-3349880Y-21194047D01*
X-3445119Y-21146428D01*
X-3683214Y-21146428D01*
X-3778452Y-21098809D01*
X-4683214Y-20860714D02*
X-4683214Y-21527380D01*
X-4254642Y-20860714D02*
X-4254642Y-21384523D01*
X-4302261Y-21479761D01*
X-4397499Y-21527380D01*
X-4540357Y-21527380D01*
X-4635595Y-21479761D01*
X-4683214Y-21432142D01*
X-5016547Y-20860714D02*
X-5397499Y-20860714D01*
X-5159404Y-20527380D02*
X-5159404Y-21384523D01*
X-5207023Y-21479761D01*
X-5302261Y-21527380D01*
X-5397499Y-21527380D01*
X-5730833Y-21527380D02*
X-5730833Y-20527380D01*
X-6159404Y-21527380D02*
X-6159404Y-21003571D01*
X-6111785Y-20908333D01*
X-6016547Y-20860714D01*
X-5873690Y-20860714D01*
X-5778452Y-20908333D01*
X-5730833Y-20955952D01*
X-7349880Y-20479761D02*
X-6492738Y-21765476D01*
X-7683214Y-21527380D02*
X-7683214Y-20860714D01*
X-7683214Y-20955952D02*
X-7730833Y-20908333D01*
X-7826071Y-20860714D01*
X-7968928Y-20860714D01*
X-8064166Y-20908333D01*
X-8111785Y-21003571D01*
X-8111785Y-21527380D01*
X-8111785Y-21003571D02*
X-8159404Y-20908333D01*
X-8254642Y-20860714D01*
X-8397499Y-20860714D01*
X-8492738Y-20908333D01*
X-8540357Y-21003571D01*
X-8540357Y-21527380D01*
X-9445119Y-21527380D02*
X-9445119Y-21003571D01*
X-9397499Y-20908333D01*
X-9302261Y-20860714D01*
X-9111785Y-20860714D01*
X-9016547Y-20908333D01*
X-9445119Y-21479761D02*
X-9349880Y-21527380D01*
X-9111785Y-21527380D01*
X-9016547Y-21479761D01*
X-8968928Y-21384523D01*
X-8968928Y-21289285D01*
X-9016547Y-21194047D01*
X-9111785Y-21146428D01*
X-9349880Y-21146428D01*
X-9445119Y-21098809D01*
X-10349880Y-20860714D02*
X-10349880Y-21670238D01*
X-10302261Y-21765476D01*
X-10254642Y-21813095D01*
X-10159404Y-21860714D01*
X-10016547Y-21860714D01*
X-9921309Y-21813095D01*
X-10349880Y-21479761D02*
X-10254642Y-21527380D01*
X-10064166Y-21527380D01*
X-9968928Y-21479761D01*
X-9921309Y-21432142D01*
X-9873690Y-21336904D01*
X-9873690Y-21051190D01*
X-9921309Y-20955952D01*
X-9968928Y-20908333D01*
X-10064166Y-20860714D01*
X-10254642Y-20860714D01*
X-10349880Y-20908333D01*
X-10826071Y-21527380D02*
X-10826071Y-20860714D01*
X-10826071Y-20527380D02*
X-10778452Y-20575000D01*
X-10826071Y-20622619D01*
X-10873690Y-20575000D01*
X-10826071Y-20527380D01*
X-10826071Y-20622619D01*
X-11730833Y-21479761D02*
X-11635595Y-21527380D01*
X-11445119Y-21527380D01*
X-11349880Y-21479761D01*
X-11302261Y-21432142D01*
X-11254642Y-21336904D01*
X-11254642Y-21051190D01*
X-11302261Y-20955952D01*
X-11349880Y-20908333D01*
X-11445119Y-20860714D01*
X-11635595Y-20860714D01*
X-11730833Y-20908333D01*
X-12159404Y-21146428D02*
X-12921309Y-21146428D01*
X-13397499Y-21527380D02*
X-13397499Y-20860714D01*
X-13397499Y-20955952D02*
X-13445119Y-20908333D01*
X-13540357Y-20860714D01*
X-13683214Y-20860714D01*
X-13778452Y-20908333D01*
X-13826071Y-21003571D01*
X-13826071Y-21527380D01*
X-13826071Y-21003571D02*
X-13873690Y-20908333D01*
X-13968928Y-20860714D01*
X-14111785Y-20860714D01*
X-14207023Y-20908333D01*
X-14254642Y-21003571D01*
X-14254642Y-21527380D01*
X-15159404Y-21527380D02*
X-15159404Y-21003571D01*
X-15111785Y-20908333D01*
X-15016547Y-20860714D01*
X-14826071Y-20860714D01*
X-14730833Y-20908333D01*
X-15159404Y-21479761D02*
X-15064166Y-21527380D01*
X-14826071Y-21527380D01*
X-14730833Y-21479761D01*
X-14683214Y-21384523D01*
X-14683214Y-21289285D01*
X-14730833Y-21194047D01*
X-14826071Y-21146428D01*
X-15064166Y-21146428D01*
X-15159404Y-21098809D01*
X-15587976Y-21479761D02*
X-15683214Y-21527380D01*
X-15873690Y-21527380D01*
X-15968928Y-21479761D01*
X-16016547Y-21384523D01*
X-16016547Y-21336904D01*
X-15968928Y-21241666D01*
X-15873690Y-21194047D01*
X-15730833Y-21194047D01*
X-15635595Y-21146428D01*
X-15587976Y-21051190D01*
X-15587976Y-21003571D01*
X-15635595Y-20908333D01*
X-15730833Y-20860714D01*
X-15873690Y-20860714D01*
X-15968928Y-20908333D01*
X-16587976Y-21527380D02*
X-16492738Y-21479761D01*
X-16445119Y-21432142D01*
X-16397499Y-21336904D01*
X-16397499Y-21051190D01*
X-16445119Y-20955952D01*
X-16492738Y-20908333D01*
X-16587976Y-20860714D01*
X-16730833Y-20860714D01*
X-16826071Y-20908333D01*
X-16873690Y-20955952D01*
X-16921309Y-21051190D01*
X-16921309Y-21336904D01*
X-16873690Y-21432142D01*
X-16826071Y-21479761D01*
X-16730833Y-21527380D01*
X-16587976Y-21527380D01*
X-17349880Y-20860714D02*
X-17349880Y-21527380D01*
X-17349880Y-20955952D02*
X-17397499Y-20908333D01*
X-17492738Y-20860714D01*
X-17635595Y-20860714D01*
X-17730833Y-20908333D01*
X-17778452Y-21003571D01*
X-17778452Y-21527380D01*
X-18254642Y-21146428D02*
X-19016547Y-21146428D01*
X-19492738Y-20860714D02*
X-19492738Y-21717857D01*
X-19445119Y-21813095D01*
X-19349880Y-21860714D01*
X-19302261Y-21860714D01*
X-19492738Y-20527380D02*
X-19445119Y-20575000D01*
X-19492738Y-20622619D01*
X-19540357Y-20575000D01*
X-19492738Y-20527380D01*
X-19492738Y-20622619D01*
X-20397499Y-21527380D02*
X-20397499Y-21003571D01*
X-20349880Y-20908333D01*
X-20254642Y-20860714D01*
X-20064166Y-20860714D01*
X-19968928Y-20908333D01*
X-20397499Y-21479761D02*
X-20302261Y-21527380D01*
X-20064166Y-21527380D01*
X-19968928Y-21479761D01*
X-19921309Y-21384523D01*
X-19921309Y-21289285D01*
X-19968928Y-21194047D01*
X-20064166Y-21146428D01*
X-20302261Y-21146428D01*
X-20397499Y-21098809D01*
X-20873690Y-21527380D02*
X-20873690Y-20860714D01*
X-20873690Y-21051190D02*
X-20921309Y-20955952D01*
X-20968928Y-20908333D01*
X-21064166Y-20860714D01*
X-21159404Y-20860714D01*
D11*
X18280952Y-18171428D02*
X17519047Y-18171428D01*
X17900000Y-18552380D02*
X17900000Y-17790476D01*
X16280952Y-18171428D02*
X15519047Y-18171428D01*
D12*
X-2888095Y-97942857D02*
X-4411904Y-97942857D01*
X4411904Y-97892857D02*
X2888095Y-97892857D01*
X3650000Y-98654761D02*
X3650000Y-97130952D01*
D13*
X-3178571Y-1414285D02*
X-3578571Y-1414285D01*
X-3750000Y-2042857D02*
X-3178571Y-2042857D01*
X-3178571Y-842857D01*
X-3750000Y-842857D01*
X-4207142Y-1985714D02*
X-4378571Y-2042857D01*
X-4664285Y-2042857D01*
X-4778571Y-1985714D01*
X-4835714Y-1928571D01*
X-4892857Y-1814285D01*
X-4892857Y-1700000D01*
X-4835714Y-1585714D01*
X-4778571Y-1528571D01*
X-4664285Y-1471428D01*
X-4435714Y-1414285D01*
X-4321428Y-1357142D01*
X-4264285Y-1300000D01*
X-4207142Y-1185714D01*
X-4207142Y-1071428D01*
X-4264285Y-957142D01*
X-4321428Y-900000D01*
X-4435714Y-842857D01*
X-4721428Y-842857D01*
X-4892857Y-900000D01*
X-5407142Y-2042857D02*
X-5407142Y-842857D01*
X-5864285Y-842857D01*
X-5978571Y-900000D01*
X-6035714Y-957142D01*
X-6092857Y-1071428D01*
X-6092857Y-1242857D01*
X-6035714Y-1357142D01*
X-5978571Y-1414285D01*
X-5864285Y-1471428D01*
X-5407142Y-1471428D01*
X-6492857Y-842857D02*
X-7235714Y-842857D01*
X-6835714Y-1300000D01*
X-7007142Y-1300000D01*
X-7121428Y-1357142D01*
X-7178571Y-1414285D01*
X-7235714Y-1528571D01*
X-7235714Y-1814285D01*
X-7178571Y-1928571D01*
X-7121428Y-1985714D01*
X-7007142Y-2042857D01*
X-6664285Y-2042857D01*
X-6550000Y-1985714D01*
X-6492857Y-1928571D01*
X-7692857Y-957142D02*
X-7750000Y-900000D01*
X-7864285Y-842857D01*
X-8150000Y-842857D01*
X-8264285Y-900000D01*
X-8321428Y-957142D01*
X-8378571Y-1071428D01*
X-8378571Y-1185714D01*
X-8321428Y-1357142D01*
X-7635714Y-2042857D01*
X-8378571Y-2042857D01*
X7992857Y-842857D02*
X7992857Y-1700000D01*
X8050000Y-1871428D01*
X8164285Y-1985714D01*
X8335714Y-2042857D01*
X8450000Y-2042857D01*
X7421428Y-2042857D02*
X7421428Y-842857D01*
X6735714Y-2042857D01*
X6735714Y-842857D01*
X5592857Y-842857D02*
X6164285Y-842857D01*
X6221428Y-1414285D01*
X6164285Y-1357142D01*
X6050000Y-1300000D01*
X5764285Y-1300000D01*
X5650000Y-1357142D01*
X5592857Y-1414285D01*
X5535714Y-1528571D01*
X5535714Y-1814285D01*
X5592857Y-1928571D01*
X5650000Y-1985714D01*
X5764285Y-2042857D01*
X6050000Y-2042857D01*
X6164285Y-1985714D01*
X6221428Y-1928571D01*
X4392857Y-2042857D02*
X5078571Y-2042857D01*
X4735714Y-2042857D02*
X4735714Y-842857D01*
X4850000Y-1014285D01*
X4964285Y-1128571D01*
X5078571Y-1185714D01*
X3364285Y-842857D02*
X3592857Y-842857D01*
X3707142Y-900000D01*
X3764285Y-957142D01*
X3878571Y-1128571D01*
X3935714Y-1357142D01*
X3935714Y-1814285D01*
X3878571Y-1928571D01*
X3821428Y-1985714D01*
X3707142Y-2042857D01*
X3478571Y-2042857D01*
X3364285Y-1985714D01*
X3307142Y-1928571D01*
X3250000Y-1814285D01*
X3250000Y-1528571D01*
X3307142Y-1414285D01*
X3364285Y-1357142D01*
X3478571Y-1300000D01*
X3707142Y-1300000D01*
X3821428Y-1357142D01*
X3878571Y-1414285D01*
X3935714Y-1528571D01*
X2564285Y-1357142D02*
X2678571Y-1300000D01*
X2735714Y-1242857D01*
X2792857Y-1128571D01*
X2792857Y-1071428D01*
X2735714Y-957142D01*
X2678571Y-900000D01*
X2564285Y-842857D01*
X2335714Y-842857D01*
X2221428Y-900000D01*
X2164285Y-957142D01*
X2107142Y-1071428D01*
X2107142Y-1128571D01*
X2164285Y-1242857D01*
X2221428Y-1300000D01*
X2335714Y-1357142D01*
X2564285Y-1357142D01*
X2678571Y-1414285D01*
X2735714Y-1471428D01*
X2792857Y-1585714D01*
X2792857Y-1814285D01*
X2735714Y-1928571D01*
X2678571Y-1985714D01*
X2564285Y-2042857D01*
X2335714Y-2042857D01*
X2221428Y-1985714D01*
X2164285Y-1928571D01*
X2107142Y-1814285D01*
X2107142Y-1585714D01*
X2164285Y-1471428D01*
X2221428Y-1414285D01*
X2335714Y-1357142D01*
D10*
X-9209523Y-3861904D02*
X-9209523Y-3061904D01*
X-9742857Y-3061904D02*
X-9895238Y-3061904D01*
X-9971428Y-3100000D01*
X-10047619Y-3176190D01*
X-10085714Y-3328571D01*
X-10085714Y-3595238D01*
X-10047619Y-3747619D01*
X-9971428Y-3823809D01*
X-9895238Y-3861904D01*
X-9742857Y-3861904D01*
X-9666666Y-3823809D01*
X-9590476Y-3747619D01*
X-9552380Y-3595238D01*
X-9552380Y-3328571D01*
X-9590476Y-3176190D01*
X-9666666Y-3100000D01*
X-9742857Y-3061904D01*
X-10580952Y-3061904D02*
X-10657142Y-3061904D01*
X-10733333Y-3100000D01*
X-10771428Y-3138095D01*
X-10809523Y-3214285D01*
X-10847619Y-3366666D01*
X-10847619Y-3557142D01*
X-10809523Y-3709523D01*
X-10771428Y-3785714D01*
X-10733333Y-3823809D01*
X-10657142Y-3861904D01*
X-10580952Y-3861904D01*
X-10504761Y-3823809D01*
X-10466666Y-3785714D01*
X-10428571Y-3709523D01*
X-10390476Y-3557142D01*
X-10390476Y-3366666D01*
X-10428571Y-3214285D01*
X-10466666Y-3138095D01*
X-10504761Y-3100000D01*
X-10580952Y-3061904D01*
X-12257142Y-3861904D02*
X-11990476Y-3480952D01*
X-11800000Y-3861904D02*
X-11800000Y-3061904D01*
X-12104761Y-3061904D01*
X-12180952Y-3100000D01*
X-12219047Y-3138095D01*
X-12257142Y-3214285D01*
X-12257142Y-3328571D01*
X-12219047Y-3404761D01*
X-12180952Y-3442857D01*
X-12104761Y-3480952D01*
X-11800000Y-3480952D01*
X-12561904Y-3823809D02*
X-12676190Y-3861904D01*
X-12866666Y-3861904D01*
X-12942857Y-3823809D01*
X-12980952Y-3785714D01*
X-13019047Y-3709523D01*
X-13019047Y-3633333D01*
X-12980952Y-3557142D01*
X-12942857Y-3519047D01*
X-12866666Y-3480952D01*
X-12714285Y-3442857D01*
X-12638095Y-3404761D01*
X-12600000Y-3366666D01*
X-12561904Y-3290476D01*
X-12561904Y-3214285D01*
X-12600000Y-3138095D01*
X-12638095Y-3100000D01*
X-12714285Y-3061904D01*
X-12904761Y-3061904D01*
X-13019047Y-3100000D01*
X-13247619Y-3061904D02*
X-13704761Y-3061904D01*
X-13476190Y-3861904D02*
X-13476190Y-3061904D01*
X-14466666Y-3061904D02*
X-14923809Y-3061904D01*
X-14695238Y-3861904D02*
X-14695238Y-3061904D01*
X-15114285Y-3061904D02*
X-15647619Y-3861904D01*
X-15647619Y-3061904D02*
X-15114285Y-3861904D01*
X-17019047Y-3861904D02*
X-16752380Y-3480952D01*
X-16561904Y-3861904D02*
X-16561904Y-3061904D01*
X-16866666Y-3061904D01*
X-16942857Y-3100000D01*
X-16980952Y-3138095D01*
X-17019047Y-3214285D01*
X-17019047Y-3328571D01*
X-16980952Y-3404761D01*
X-16942857Y-3442857D01*
X-16866666Y-3480952D01*
X-16561904Y-3480952D01*
X-17285714Y-3061904D02*
X-17819047Y-3861904D01*
X-17819047Y-3061904D02*
X-17285714Y-3861904D01*
X-19152380Y-3100000D02*
X-19076190Y-3061904D01*
X-18961904Y-3061904D01*
X-18847619Y-3100000D01*
X-18771428Y-3176190D01*
X-18733333Y-3252380D01*
X-18695238Y-3404761D01*
X-18695238Y-3519047D01*
X-18733333Y-3671428D01*
X-18771428Y-3747619D01*
X-18847619Y-3823809D01*
X-18961904Y-3861904D01*
X-19038095Y-3861904D01*
X-19152380Y-3823809D01*
X-19190476Y-3785714D01*
X-19190476Y-3519047D01*
X-19038095Y-3519047D01*
X-19533333Y-3861904D02*
X-19533333Y-3061904D01*
X-19990476Y-3861904D01*
X-19990476Y-3061904D01*
X-20371428Y-3861904D02*
X-20371428Y-3061904D01*
X-20561904Y-3061904D01*
X-20676190Y-3100000D01*
X-20752380Y-3176190D01*
X-20790476Y-3252380D01*
X-20828571Y-3404761D01*
X-20828571Y-3519047D01*
X-20790476Y-3671428D01*
X-20752380Y-3747619D01*
X-20676190Y-3823809D01*
X-20561904Y-3861904D01*
X-20371428Y-3861904D01*
X20673809Y-3100000D02*
X20750000Y-3061904D01*
X20864285Y-3061904D01*
X20978571Y-3100000D01*
X21054761Y-3176190D01*
X21092857Y-3252380D01*
X21130952Y-3404761D01*
X21130952Y-3519047D01*
X21092857Y-3671428D01*
X21054761Y-3747619D01*
X20978571Y-3823809D01*
X20864285Y-3861904D01*
X20788095Y-3861904D01*
X20673809Y-3823809D01*
X20635714Y-3785714D01*
X20635714Y-3519047D01*
X20788095Y-3519047D01*
X20292857Y-3861904D02*
X20292857Y-3061904D01*
X19835714Y-3861904D01*
X19835714Y-3061904D01*
X19454761Y-3861904D02*
X19454761Y-3061904D01*
X19264285Y-3061904D01*
X19150000Y-3100000D01*
X19073809Y-3176190D01*
X19035714Y-3252380D01*
X18997619Y-3404761D01*
X18997619Y-3519047D01*
X19035714Y-3671428D01*
X19073809Y-3747619D01*
X19150000Y-3823809D01*
X19264285Y-3861904D01*
X19454761Y-3861904D01*
X17588095Y-3861904D02*
X17854761Y-3480952D01*
X18045238Y-3861904D02*
X18045238Y-3061904D01*
X17740476Y-3061904D01*
X17664285Y-3100000D01*
X17626190Y-3138095D01*
X17588095Y-3214285D01*
X17588095Y-3328571D01*
X17626190Y-3404761D01*
X17664285Y-3442857D01*
X17740476Y-3480952D01*
X18045238Y-3480952D01*
X17321428Y-3061904D02*
X16788095Y-3861904D01*
X16788095Y-3061904D02*
X17321428Y-3861904D01*
X15988095Y-3061904D02*
X15530952Y-3061904D01*
X15759523Y-3861904D02*
X15759523Y-3061904D01*
X15340476Y-3061904D02*
X14807142Y-3861904D01*
X14807142Y-3061904D02*
X15340476Y-3861904D01*
X13435714Y-3861904D02*
X13702380Y-3480952D01*
X13892857Y-3861904D02*
X13892857Y-3061904D01*
X13588095Y-3061904D01*
X13511904Y-3100000D01*
X13473809Y-3138095D01*
X13435714Y-3214285D01*
X13435714Y-3328571D01*
X13473809Y-3404761D01*
X13511904Y-3442857D01*
X13588095Y-3480952D01*
X13892857Y-3480952D01*
X13130952Y-3823809D02*
X13016666Y-3861904D01*
X12826190Y-3861904D01*
X12750000Y-3823809D01*
X12711904Y-3785714D01*
X12673809Y-3709523D01*
X12673809Y-3633333D01*
X12711904Y-3557142D01*
X12750000Y-3519047D01*
X12826190Y-3480952D01*
X12978571Y-3442857D01*
X13054761Y-3404761D01*
X13092857Y-3366666D01*
X13130952Y-3290476D01*
X13130952Y-3214285D01*
X13092857Y-3138095D01*
X13054761Y-3100000D01*
X12978571Y-3061904D01*
X12788095Y-3061904D01*
X12673809Y-3100000D01*
X12445238Y-3061904D02*
X11988095Y-3061904D01*
X12216666Y-3861904D02*
X12216666Y-3061904D01*
X10845238Y-3442857D02*
X10730952Y-3480952D01*
X10692857Y-3519047D01*
X10654761Y-3595238D01*
X10654761Y-3709523D01*
X10692857Y-3785714D01*
X10730952Y-3823809D01*
X10807142Y-3861904D01*
X11111904Y-3861904D01*
X11111904Y-3061904D01*
X10845238Y-3061904D01*
X10769047Y-3100000D01*
X10730952Y-3138095D01*
X10692857Y-3214285D01*
X10692857Y-3290476D01*
X10730952Y-3366666D01*
X10769047Y-3404761D01*
X10845238Y-3442857D01*
X11111904Y-3442857D01*
X10159523Y-3061904D02*
X10007142Y-3061904D01*
X9930952Y-3100000D01*
X9854761Y-3176190D01*
X9816666Y-3328571D01*
X9816666Y-3595238D01*
X9854761Y-3747619D01*
X9930952Y-3823809D01*
X10007142Y-3861904D01*
X10159523Y-3861904D01*
X10235714Y-3823809D01*
X10311904Y-3747619D01*
X10350000Y-3595238D01*
X10350000Y-3328571D01*
X10311904Y-3176190D01*
X10235714Y-3100000D01*
X10159523Y-3061904D01*
X9321428Y-3061904D02*
X9169047Y-3061904D01*
X9092857Y-3100000D01*
X9016666Y-3176190D01*
X8978571Y-3328571D01*
X8978571Y-3595238D01*
X9016666Y-3747619D01*
X9092857Y-3823809D01*
X9169047Y-3861904D01*
X9321428Y-3861904D01*
X9397619Y-3823809D01*
X9473809Y-3747619D01*
X9511904Y-3595238D01*
X9511904Y-3328571D01*
X9473809Y-3176190D01*
X9397619Y-3100000D01*
X9321428Y-3061904D01*
X8750000Y-3061904D02*
X8292857Y-3061904D01*
X8521428Y-3861904D02*
X8521428Y-3061904D01*
D13*
X19380952Y-9107142D02*
X19095238Y-9202380D01*
X19000000Y-9297619D01*
X18904761Y-9488095D01*
X18904761Y-9773809D01*
X19000000Y-9964285D01*
X19095238Y-10059523D01*
X19285714Y-10154761D01*
X20047619Y-10154761D01*
X20047619Y-8154761D01*
X19380952Y-8154761D01*
X19190476Y-8250000D01*
X19095238Y-8345238D01*
X19000000Y-8535714D01*
X19000000Y-8726190D01*
X19095238Y-8916666D01*
X19190476Y-9011904D01*
X19380952Y-9107142D01*
X20047619Y-9107142D01*
X18047619Y-10154761D02*
X18047619Y-8154761D01*
X17095238Y-10154761D02*
X17095238Y-8154761D01*
X15952380Y-10154761D01*
X15952380Y-8154761D01*
X15000000Y-10154761D02*
X15000000Y-8154761D01*
X14523809Y-8154761D01*
X14238095Y-8250000D01*
X14047619Y-8440476D01*
X13952380Y-8630952D01*
X13857142Y-9011904D01*
X13857142Y-9297619D01*
X13952380Y-9678571D01*
X14047619Y-9869047D01*
X14238095Y-10059523D01*
X14523809Y-10154761D01*
X15000000Y-10154761D01*
X-13571428Y-8154761D02*
X-13571428Y-9773809D01*
X-13666666Y-9964285D01*
X-13761904Y-10059523D01*
X-13952380Y-10154761D01*
X-14333333Y-10154761D01*
X-14523809Y-10059523D01*
X-14619047Y-9964285D01*
X-14714285Y-9773809D01*
X-14714285Y-8154761D01*
X-15571428Y-10059523D02*
X-15857142Y-10154761D01*
X-16333333Y-10154761D01*
X-16523809Y-10059523D01*
X-16619047Y-9964285D01*
X-16714285Y-9773809D01*
X-16714285Y-9583333D01*
X-16619047Y-9392857D01*
X-16523809Y-9297619D01*
X-16333333Y-9202380D01*
X-15952380Y-9107142D01*
X-15761904Y-9011904D01*
X-15666666Y-8916666D01*
X-15571428Y-8726190D01*
X-15571428Y-8535714D01*
X-15666666Y-8345238D01*
X-15761904Y-8250000D01*
X-15952380Y-8154761D01*
X-16428571Y-8154761D01*
X-16714285Y-8250000D01*
X-17571428Y-9107142D02*
X-18238095Y-9107142D01*
X-18523809Y-10154761D02*
X-17571428Y-10154761D01*
X-17571428Y-8154761D01*
X-18523809Y-8154761D01*
X-20523809Y-10154761D02*
X-19857142Y-9202380D01*
X-19380952Y-10154761D02*
X-19380952Y-8154761D01*
X-20142857Y-8154761D01*
X-20333333Y-8250000D01*
X-20428571Y-8345238D01*
X-20523809Y-8535714D01*
X-20523809Y-8821428D01*
X-20428571Y-9011904D01*
X-20333333Y-9107142D01*
X-20142857Y-9202380D01*
X-19380952Y-9202380D01*
D14*
X13770000Y-10770000D02*
X20230000Y-10770000D01*
X13770000Y-15300000D02*
X13770000Y-12700000D01*
X13770000Y-17230000D02*
X20230000Y-17230000D01*
X20230000Y-15300000D02*
X20230000Y-12700000D01*
X13770000Y-17200000D02*
X13770000Y-17230000D01*
X13770000Y-10770000D02*
X13770000Y-10800000D01*
X20230000Y-10770000D02*
X20230000Y-10800000D01*
X20230000Y-17230000D02*
X20230000Y-17200000D01*
X-20230000Y-10770000D02*
X-13770000Y-10770000D01*
X-20230000Y-15300000D02*
X-20230000Y-12700000D01*
X-20230000Y-17230000D02*
X-13770000Y-17230000D01*
X-13770000Y-15300000D02*
X-13770000Y-12700000D01*
X-20230000Y-17200000D02*
X-20230000Y-17230000D01*
X-20230000Y-10770000D02*
X-20230000Y-10800000D01*
X-13770000Y-10770000D02*
X-13770000Y-10800000D01*
X-13770000Y-17230000D02*
X-13770000Y-17200000D01*
X-23708578Y-17840000D02*
X-23191422Y-17840000D01*
X-23708578Y-19260000D02*
X-23191422Y-19260000D01*
X-25560000Y-16685000D02*
X-25560000Y-14000000D01*
X-23640000Y-16685000D02*
X-25560000Y-16685000D01*
X-23640000Y-14000000D02*
X-23640000Y-16685000D01*
M02*
