G04 #@! TF.GenerationSoftware,KiCad,Pcbnew,5.1.4+dfsg1-1*
G04 #@! TF.CreationDate,2019-12-22T16:06:29+01:00*
G04 #@! TF.ProjectId,masonjar,6d61736f-6e6a-4617-922e-6b696361645f,rev?*
G04 #@! TF.SameCoordinates,Original*
G04 #@! TF.FileFunction,Profile,NP*
%FSLAX46Y46*%
G04 Gerber Fmt 4.6, Leading zero omitted, Abs format (unit mm)*
G04 Created by KiCad (PCBNEW 5.1.4+dfsg1-1) date 2019-12-22 16:06:29*
%MOMM*%
%LPD*%
G04 APERTURE LIST*
%ADD10C,0.050000*%
G04 APERTURE END LIST*
D10*
X18750000Y-25000000D02*
X18750000Y-34250000D01*
X4250000Y-25000000D02*
X4250000Y-34250000D01*
X-24750000Y-25000000D02*
X-24750000Y-34250000D01*
X-4250000Y-34250000D02*
X-4250000Y-25000000D01*
X26000000Y-25000000D02*
X26000000Y-34250000D01*
X-26000000Y-25000000D02*
X-26000000Y-34250000D01*
X24750000Y-34250000D02*
X24750000Y-25000000D01*
X17500000Y-34250000D02*
X17500000Y-25000000D01*
X-3000000Y-25000000D02*
X-3000000Y-34250000D01*
X-11500000Y-34250000D02*
X-11500000Y-25000000D01*
X3000000Y-34250000D02*
X3000000Y-25000000D01*
X-17500000Y-25000000D02*
X-17500000Y-34250000D01*
X11500000Y-25000000D02*
X11500000Y-34250000D01*
X10250000Y-34250000D02*
X10250000Y-25000000D01*
X-10250000Y-25000000D02*
X-10250000Y-34250000D01*
X-18750000Y-34250000D02*
X-18750000Y-25000000D01*
X32000000Y-96750000D02*
X32000000Y-100000000D01*
X4250000Y-96750000D02*
X10250000Y-96750000D01*
X-10250000Y-87500000D02*
X-10250000Y-96750000D01*
X-31750000Y-96750000D02*
X-31750000Y-100000000D01*
X26000000Y-87500000D02*
X26000000Y-96750000D01*
X-3000000Y-87500000D02*
X-3000000Y-96750000D01*
X-26000000Y-87500000D02*
X-26000000Y-96750000D01*
X18750000Y-96750000D02*
X24750000Y-96750000D01*
X11500000Y-96750000D02*
X17500000Y-96750000D01*
X-4250000Y-96750000D02*
X-4250000Y-87500000D01*
X-26000000Y-96750000D02*
X-31750000Y-96750000D01*
X-31750000Y-100000000D02*
X26000000Y-100000000D01*
X4250000Y-87500000D02*
X4250000Y-96750000D01*
X3000000Y-96750000D02*
X3000000Y-87500000D01*
X-24750000Y-87500000D02*
X-24750000Y-96750000D01*
X24750000Y-96750000D02*
X24750000Y-87500000D01*
X17500000Y-96750000D02*
X17500000Y-87500000D01*
X-17500000Y-87500000D02*
X-17500000Y-96750000D01*
X18750000Y-87500000D02*
X18750000Y-96750000D01*
X10250000Y-96750000D02*
X10250000Y-87500000D01*
X-10250000Y-96750000D02*
X-4250000Y-96750000D01*
X32000000Y-100000000D02*
X26000000Y-100000000D01*
X-24750000Y-96750000D02*
X-18750000Y-96750000D01*
X-18750000Y-96750000D02*
X-18750000Y-87500000D01*
X11500000Y-87500000D02*
X11500000Y-96750000D01*
X-17500000Y-96750000D02*
X-11500000Y-96750000D01*
X-11500000Y-96750000D02*
X-11500000Y-87500000D01*
X26000000Y-96750000D02*
X32000000Y-96750000D01*
X-3000000Y-96750000D02*
X3000000Y-96750000D01*
X32000000Y-84250000D02*
X32000000Y-87500000D01*
X4250000Y-84250000D02*
X10250000Y-84250000D01*
X-10250000Y-75000000D02*
X-10250000Y-84250000D01*
X-31750000Y-84250000D02*
X-31750000Y-87500000D01*
X26000000Y-75000000D02*
X26000000Y-84250000D01*
X-3000000Y-75000000D02*
X-3000000Y-84250000D01*
X3000000Y-87500000D02*
X-3000000Y-87500000D01*
X10250000Y-87500000D02*
X4250000Y-87500000D01*
X-26000000Y-75000000D02*
X-26000000Y-84250000D01*
X18750000Y-84250000D02*
X24750000Y-84250000D01*
X11500000Y-84250000D02*
X17500000Y-84250000D01*
X-4250000Y-84250000D02*
X-4250000Y-75000000D01*
X-26000000Y-84250000D02*
X-31750000Y-84250000D01*
X-31750000Y-87500000D02*
X-26000000Y-87500000D01*
X4250000Y-75000000D02*
X4250000Y-84250000D01*
X3000000Y-84250000D02*
X3000000Y-75000000D01*
X-24750000Y-75000000D02*
X-24750000Y-84250000D01*
X24750000Y-84250000D02*
X24750000Y-75000000D01*
X17500000Y-84250000D02*
X17500000Y-75000000D01*
X-17500000Y-75000000D02*
X-17500000Y-84250000D01*
X18750000Y-75000000D02*
X18750000Y-84250000D01*
X10250000Y-84250000D02*
X10250000Y-75000000D01*
X-10250000Y-84250000D02*
X-4250000Y-84250000D01*
X-11500000Y-87500000D02*
X-17500000Y-87500000D01*
X32000000Y-87500000D02*
X26000000Y-87500000D01*
X-4250000Y-87500000D02*
X-10250000Y-87500000D01*
X-24750000Y-84250000D02*
X-18750000Y-84250000D01*
X-18750000Y-84250000D02*
X-18750000Y-75000000D01*
X11500000Y-75000000D02*
X11500000Y-84250000D01*
X24750000Y-87500000D02*
X18750000Y-87500000D01*
X17500000Y-87500000D02*
X11500000Y-87500000D01*
X-17500000Y-84250000D02*
X-11500000Y-84250000D01*
X-11500000Y-84250000D02*
X-11500000Y-75000000D01*
X26000000Y-84250000D02*
X32000000Y-84250000D01*
X-3000000Y-84250000D02*
X3000000Y-84250000D01*
X-18750000Y-87500000D02*
X-24750000Y-87500000D01*
X32000000Y-71750000D02*
X32000000Y-75000000D01*
X4250000Y-71750000D02*
X10250000Y-71750000D01*
X-10250000Y-62500000D02*
X-10250000Y-71750000D01*
X-31750000Y-71750000D02*
X-31750000Y-75000000D01*
X26000000Y-62500000D02*
X26000000Y-71750000D01*
X-3000000Y-62500000D02*
X-3000000Y-71750000D01*
X3000000Y-75000000D02*
X-3000000Y-75000000D01*
X10250000Y-75000000D02*
X4250000Y-75000000D01*
X-26000000Y-62500000D02*
X-26000000Y-71750000D01*
X18750000Y-71750000D02*
X24750000Y-71750000D01*
X11500000Y-71750000D02*
X17500000Y-71750000D01*
X-4250000Y-71750000D02*
X-4250000Y-62500000D01*
X-26000000Y-71750000D02*
X-31750000Y-71750000D01*
X-31750000Y-75000000D02*
X-26000000Y-75000000D01*
X4250000Y-62500000D02*
X4250000Y-71750000D01*
X3000000Y-71750000D02*
X3000000Y-62500000D01*
X-24750000Y-62500000D02*
X-24750000Y-71750000D01*
X24750000Y-71750000D02*
X24750000Y-62500000D01*
X17500000Y-71750000D02*
X17500000Y-62500000D01*
X-17500000Y-62500000D02*
X-17500000Y-71750000D01*
X18750000Y-62500000D02*
X18750000Y-71750000D01*
X10250000Y-71750000D02*
X10250000Y-62500000D01*
X-10250000Y-71750000D02*
X-4250000Y-71750000D01*
X-11500000Y-75000000D02*
X-17500000Y-75000000D01*
X32000000Y-75000000D02*
X26000000Y-75000000D01*
X-4250000Y-75000000D02*
X-10250000Y-75000000D01*
X-24750000Y-71750000D02*
X-18750000Y-71750000D01*
X-18750000Y-71750000D02*
X-18750000Y-62500000D01*
X11500000Y-62500000D02*
X11500000Y-71750000D01*
X24750000Y-75000000D02*
X18750000Y-75000000D01*
X17500000Y-75000000D02*
X11500000Y-75000000D01*
X-17500000Y-71750000D02*
X-11500000Y-71750000D01*
X-11500000Y-71750000D02*
X-11500000Y-62500000D01*
X26000000Y-71750000D02*
X32000000Y-71750000D01*
X-3000000Y-71750000D02*
X3000000Y-71750000D01*
X-18750000Y-75000000D02*
X-24750000Y-75000000D01*
X32000000Y-59250000D02*
X32000000Y-62500000D01*
X4250000Y-59250000D02*
X10250000Y-59250000D01*
X-10250000Y-50000000D02*
X-10250000Y-59250000D01*
X-31750000Y-59250000D02*
X-31750000Y-62500000D01*
X26000000Y-50000000D02*
X26000000Y-59250000D01*
X-3000000Y-50000000D02*
X-3000000Y-59250000D01*
X3000000Y-62500000D02*
X-3000000Y-62500000D01*
X10250000Y-62500000D02*
X4250000Y-62500000D01*
X-26000000Y-50000000D02*
X-26000000Y-59250000D01*
X18750000Y-59250000D02*
X24750000Y-59250000D01*
X11500000Y-59250000D02*
X17500000Y-59250000D01*
X-4250000Y-59250000D02*
X-4250000Y-50000000D01*
X-26000000Y-59250000D02*
X-31750000Y-59250000D01*
X-31750000Y-62500000D02*
X-26000000Y-62500000D01*
X4250000Y-50000000D02*
X4250000Y-59250000D01*
X3000000Y-59250000D02*
X3000000Y-50000000D01*
X-24750000Y-50000000D02*
X-24750000Y-59250000D01*
X24750000Y-59250000D02*
X24750000Y-50000000D01*
X17500000Y-59250000D02*
X17500000Y-50000000D01*
X-17500000Y-50000000D02*
X-17500000Y-59250000D01*
X18750000Y-50000000D02*
X18750000Y-59250000D01*
X10250000Y-59250000D02*
X10250000Y-50000000D01*
X-10250000Y-59250000D02*
X-4250000Y-59250000D01*
X-11500000Y-62500000D02*
X-17500000Y-62500000D01*
X32000000Y-62500000D02*
X26000000Y-62500000D01*
X-4250000Y-62500000D02*
X-10250000Y-62500000D01*
X-24750000Y-59250000D02*
X-18750000Y-59250000D01*
X-18750000Y-59250000D02*
X-18750000Y-50000000D01*
X11500000Y-50000000D02*
X11500000Y-59250000D01*
X24750000Y-62500000D02*
X18750000Y-62500000D01*
X17500000Y-62500000D02*
X11500000Y-62500000D01*
X-17500000Y-59250000D02*
X-11500000Y-59250000D01*
X-11500000Y-59250000D02*
X-11500000Y-50000000D01*
X26000000Y-59250000D02*
X32000000Y-59250000D01*
X-3000000Y-59250000D02*
X3000000Y-59250000D01*
X-18750000Y-62500000D02*
X-24750000Y-62500000D01*
X32000000Y-46750000D02*
X32000000Y-50000000D01*
X32000000Y-34250000D02*
X32000000Y-37500000D01*
X32000000Y-3250000D02*
X32000000Y-25000000D01*
X-31750000Y-50000000D02*
X-26000000Y-50000000D01*
X-31750000Y-46750000D02*
X-31750000Y-50000000D01*
X-26000000Y-46750000D02*
X-31750000Y-46750000D01*
X3000000Y-50000000D02*
X-3000000Y-50000000D01*
X17500000Y-50000000D02*
X11500000Y-50000000D01*
X32000000Y-50000000D02*
X26000000Y-50000000D01*
X-4250000Y-50000000D02*
X-10250000Y-50000000D01*
X-18750000Y-50000000D02*
X-24750000Y-50000000D01*
X-11500000Y-50000000D02*
X-17500000Y-50000000D01*
X10250000Y-50000000D02*
X4250000Y-50000000D01*
X24750000Y-50000000D02*
X18750000Y-50000000D01*
X4250000Y-46750000D02*
X10250000Y-46750000D01*
X26000000Y-37500000D02*
X26000000Y-46750000D01*
X-3000000Y-37500000D02*
X-3000000Y-46750000D01*
X26000000Y-46750000D02*
X32000000Y-46750000D01*
X-3000000Y-46750000D02*
X3000000Y-46750000D01*
X3000000Y-37500000D02*
X-3000000Y-37500000D01*
X-24750000Y-37500000D02*
X-24750000Y-46750000D01*
X18750000Y-46750000D02*
X24750000Y-46750000D01*
X-4250000Y-46750000D02*
X-4250000Y-37500000D01*
X-11500000Y-46750000D02*
X-11500000Y-37500000D01*
X17500000Y-37500000D02*
X11500000Y-37500000D01*
X11500000Y-37500000D02*
X11500000Y-46750000D01*
X10250000Y-46750000D02*
X10250000Y-37500000D01*
X32000000Y-37500000D02*
X26000000Y-37500000D01*
X-4250000Y-37500000D02*
X-10250000Y-37500000D01*
X11500000Y-46750000D02*
X17500000Y-46750000D01*
X4250000Y-37500000D02*
X4250000Y-46750000D01*
X3000000Y-46750000D02*
X3000000Y-37500000D01*
X24750000Y-46750000D02*
X24750000Y-37500000D01*
X-17500000Y-37500000D02*
X-17500000Y-46750000D01*
X-18750000Y-37500000D02*
X-24750000Y-37500000D01*
X-10250000Y-37500000D02*
X-10250000Y-46750000D01*
X-17500000Y-46750000D02*
X-11500000Y-46750000D01*
X18750000Y-37500000D02*
X18750000Y-46750000D01*
X-11500000Y-37500000D02*
X-17500000Y-37500000D01*
X-18750000Y-46750000D02*
X-18750000Y-37500000D01*
X-24750000Y-46750000D02*
X-18750000Y-46750000D01*
X17500000Y-46750000D02*
X17500000Y-37500000D01*
X10250000Y-37500000D02*
X4250000Y-37500000D01*
X24750000Y-37500000D02*
X18750000Y-37500000D01*
X-10250000Y-46750000D02*
X-4250000Y-46750000D01*
X32000000Y-25000000D02*
X26000000Y-25000000D01*
X26000000Y-34250000D02*
X32000000Y-34250000D01*
X24750000Y-25000000D02*
X18750000Y-25000000D01*
X18750000Y-34250000D02*
X24750000Y-34250000D01*
X17500000Y-25000000D02*
X11500000Y-25000000D01*
X11500000Y-34250000D02*
X17500000Y-34250000D01*
X10250000Y-25000000D02*
X4250000Y-25000000D01*
X4250000Y-34250000D02*
X10250000Y-34250000D01*
X3000000Y-25000000D02*
X-3000000Y-25000000D01*
X-3000000Y-34250000D02*
X3000000Y-34250000D01*
X-4250000Y-25000000D02*
X-10250000Y-25000000D01*
X-10250000Y-34250000D02*
X-4250000Y-34250000D01*
X-11500000Y-25000000D02*
X-17500000Y-25000000D01*
X-17500000Y-34250000D02*
X-11500000Y-34250000D01*
X-18750000Y-25000000D02*
X-24750000Y-25000000D01*
X-24750000Y-34250000D02*
X-18750000Y-34250000D01*
X-26000000Y-37500000D02*
X-26000000Y-46750000D01*
X-31750000Y-37500000D02*
X-26000000Y-37500000D01*
X-31750000Y-34250000D02*
X-31750000Y-37500000D01*
X-26000000Y-34250000D02*
X-31750000Y-34250000D01*
X-31750000Y-25000000D02*
X-26000000Y-25000000D01*
X-31750000Y-3250000D02*
X-31750000Y-25000000D01*
X-21500000Y-3250000D02*
X-31750000Y-3250000D01*
X21500000Y-3250000D02*
X32000000Y-3250000D01*
X-21500000Y0D02*
X-21500000Y-3250000D01*
X21500000Y0D02*
X21500000Y-3250000D01*
X-21500000Y0D02*
X21500000Y0D01*
M02*
