M48
; DRILL file {KiCad 5.1.4+dfsg1-1} date So 22 Dez 2019 16:06:30 CET
; FORMAT={-:-/ absolute / inch / decimal}
; #@! TF.CreationDate,2019-12-22T16:06:30+01:00
; #@! TF.GenerationSoftware,Kicad,Pcbnew,5.1.4+dfsg1-1
; #@! TF.FileFunction,Plated,1,2,PTH
FMAT,2
INCH
T1C0.0118
T2C0.0157
T3C0.0354
T4C0.0394
%
G90
G05
T1
X-1.024Y-1.4202
X-1.024Y-1.9124
X-1.0236Y-2.4016
X-1.0236Y-2.8937
X-1.0236Y-3.3858
X-1.0217Y-3.878
X-0.998Y-1.3839
X-0.998Y-1.876
X-0.998Y-1.876
X-0.998Y-2.3681
X-0.998Y-2.8602
X-0.998Y-3.3524
X-0.998Y-3.8445
X-0.9705Y-1.9114
X-0.9701Y-1.4193
X-0.9701Y-2.3976
X-0.9701Y-2.8878
X-0.9701Y-3.3819
X-0.9646Y-0.2559
X-0.9646Y-0.3543
X-0.9646Y-0.4528
X-0.9646Y-0.6693
X-0.9606Y-0.7894
X-0.935Y-0.7776
X-0.9055Y-0.5709
X-0.9055Y-0.6496
X-0.8661Y-0.3543
X-0.8307Y-0.4134
X-0.8248Y-0.5098
X-0.813Y-0.7835
X-0.7972Y-0.561
X-0.75Y-0.7343
X-0.7386Y-1.4202
X-0.7386Y-1.9124
X-0.7382Y-2.4016
X-0.7382Y-2.8937
X-0.7382Y-3.3858
X-0.7382Y-3.878
X-0.6988Y-0.7736
X-0.689Y-0.3543
X-0.6594Y-0.2461
X-0.6496Y-0.7343
X-0.6063Y-0.7835
X-0.5512Y-0.2461
X-0.5492Y-0.7874
X-0.5315Y-0.3543
X-0.4961Y-0.7362
X-0.4823Y-0.2461
X-0.4531Y-1.4202
X-0.4531Y-1.9124
X-0.4528Y-0.5512
X-0.4528Y-2.4016
X-0.4528Y-2.8937
X-0.4528Y-3.3858
X-0.4528Y-3.878
X-0.4272Y-1.3839
X-0.4272Y-1.876
X-0.4272Y-1.876
X-0.4272Y-2.3681
X-0.4272Y-2.8602
X-0.4272Y-3.3524
X-0.4272Y-3.8445
X-0.3996Y-1.4193
X-0.3996Y-1.9114
X-0.3992Y-2.3976
X-0.3992Y-2.8878
X-0.3992Y-3.3799
X-0.3681Y-0.2756
X-0.3661Y-0.6693
X-0.3543Y-0.3543
X-0.3287Y-0.7264
X-0.252Y-0.1528
X-0.25Y-0.8701
X-0.2244Y-0.2441
X-0.1713Y-0.9035
X-0.1693Y-0.3406
X-0.1677Y-1.4202
X-0.1677Y-1.9124
X-0.1673Y-2.4016
X-0.1673Y-2.8937
X-0.1673Y-3.3858
X-0.1673Y-3.878
X-0.1437Y-0.5768
X-0.1398Y-0.5472
X-0.1181Y-0.3051
X-0.1181Y-0.4508
X-0.1063Y-0.4114
X-0.0157Y-0.1831
X-0.0118Y-0.2146
X0.0217Y-0.1182
X0.0276Y-0.2638
X0.0276Y-0.2972
X0.0866Y-0.1732
X0.1177Y-1.4202
X0.1177Y-1.9124
X0.1181Y-2.4016
X0.1181Y-2.8937
X0.1181Y-3.3858
X0.1181Y-3.878
X0.128Y-0.2224
X0.1437Y-1.3839
X0.1437Y-1.3839
X0.1437Y-1.876
X0.1437Y-2.3681
X0.1437Y-2.8602
X0.1437Y-3.3524
X0.1437Y-3.8445
X0.1673Y-0.9094
X0.1713Y-1.4193
X0.1713Y-1.9114
X0.1717Y-2.3976
X0.1717Y-2.8898
X0.1717Y-3.3819
X0.1969Y-0.2657
X0.3126Y-0.8534
X0.315Y-0.5512
X0.4031Y-1.4202
X0.4031Y-1.9124
X0.4035Y-2.4016
X0.4035Y-2.8937
X0.4035Y-3.3858
X0.4035Y-3.878
X0.4311Y-0.8398
X0.4311Y-0.872
X0.4528Y-0.2953
X0.4685Y-0.8504
X0.4921Y-0.5512
X0.5177Y-0.8465
X0.5807Y-0.6102
X0.6004Y-0.3248
X0.626Y-0.7795
X0.6535Y-0.7972
X0.6886Y-1.4202
X0.6886Y-1.9124
X0.689Y-2.4016
X0.689Y-2.8937
X0.689Y-3.3858
X0.689Y-3.878
X0.7146Y-1.3839
X0.7146Y-1.3839
X0.7146Y-1.876
X0.7146Y-2.3681
X0.7146Y-2.8602
X0.7146Y-3.3524
X0.7146Y-3.8445
X0.7185Y-0.2165
X0.7185Y-0.5709
X0.7421Y-1.4193
X0.7421Y-1.9114
X0.7425Y-2.3996
X0.7425Y-2.8898
X0.7425Y-3.3819
X0.7972Y-0.3346
X0.8071Y-0.5709
X0.8071Y-0.7283
X0.974Y-1.4202
X0.974Y-1.9124
X0.9744Y-2.4016
X0.9744Y-2.8937
X0.9744Y-3.3858
X0.9744Y-3.878
X1.0Y-0.9961
X1.0Y-1.4941
X1.0Y-1.9862
X1.0Y-2.4783
X1.0Y-2.9705
X1.0Y-3.4626
X1.0276Y-1.4193
X1.0276Y-1.9114
X1.0276Y-2.8917
X1.028Y-2.3976
X1.028Y-3.3819
T2
X-0.8899Y-0.8023
X-0.8863Y-0.7721
X-0.7874Y-0.2598
X-0.7283Y-0.4724
X-0.7283Y-0.5118
X-0.7283Y-0.5512
X-0.7283Y-0.5906
X-0.7283Y-0.6299
X-0.689Y-0.4724
X-0.689Y-0.5118
X-0.689Y-0.5512
X-0.689Y-0.5906
X-0.689Y-0.6299
X-0.6496Y-0.4724
X-0.6496Y-0.5118
X-0.6496Y-0.5512
X-0.6496Y-0.5906
X-0.6496Y-0.6299
X-0.6102Y-0.4724
X-0.6102Y-0.5118
X-0.6102Y-0.5512
X-0.6102Y-0.5906
X-0.6102Y-0.6299
X-0.5709Y-0.4724
X-0.5709Y-0.5118
X-0.5709Y-0.5512
X-0.5709Y-0.5906
X-0.5709Y-0.6299
X-0.1535Y-0.2323
X-0.1516Y-0.1831
X-0.1402Y-0.7264
X-0.1142Y-0.8366
X-0.1142Y-0.8583
X-0.0787Y-0.815
X-0.0768Y-0.4823
X-0.0748Y-0.2343
X-0.0531Y-0.2579
X-0.0512Y-0.8465
X-0.0236Y-0.5728
X-0.0098Y-0.3465
X0.0295Y-0.5728
X0.0315Y-0.4094
X0.0325Y-0.8002
X0.0531Y-0.8268
X0.0585Y-0.8569
X0.063Y-0.7185
X0.124Y-0.7697
X0.1614Y-0.5965
X0.1772Y-0.6142
X0.1811Y-0.4213
X0.2185Y-0.7008
X1.1634Y-0.8524
T3
X0.2124Y-2.9094
X0.2624Y-2.9094
X0.3124Y-2.9094
X0.3624Y-2.9094
X1.0687Y-3.4016
X1.1187Y-3.4016
X1.1687Y-3.4016
X1.2187Y-3.4016
X-0.3585Y-1.9252
X-0.3085Y-1.9252
X-0.2585Y-1.9252
X-0.2085Y-1.9252
X-1.2148Y-1.4331
X-1.1648Y-1.4331
X-1.1148Y-1.4331
X-1.0648Y-1.4331
X1.0687Y-0.9409
X1.1187Y-0.9409
X1.1687Y-0.9409
X1.2187Y-0.9409
X0.7833Y-1.4331
X0.8333Y-1.4331
X0.8833Y-1.4331
X0.9333Y-1.4331
X0.4978Y-1.4331
X0.5478Y-1.4331
X0.5978Y-1.4331
X0.6478Y-1.4331
X-0.3585Y-1.4331
X-0.3085Y-1.4331
X-0.2585Y-1.4331
X-0.2085Y-1.4331
X-0.073Y-3.4016
X-0.023Y-3.4016
X0.027Y-3.4016
X0.077Y-3.4016
X-0.073Y-2.4173
X-0.023Y-2.4173
X0.027Y-2.4173
X0.077Y-2.4173
X-0.073Y-1.9252
X-0.023Y-1.9252
X0.027Y-1.9252
X0.077Y-1.9252
X0.4978Y-1.9252
X0.5478Y-1.9252
X0.5978Y-1.9252
X0.6478Y-1.9252
X-1.2148Y-2.4173
X-1.1648Y-2.4173
X-1.1148Y-2.4173
X-1.0648Y-2.4173
X-1.2148Y-3.4016
X-1.1648Y-3.4016
X-1.1148Y-3.4016
X-1.0648Y-3.4016
X0.7833Y-2.9094
X0.8333Y-2.9094
X0.8833Y-2.9094
X0.9333Y-2.9094
X0.4978Y-2.4173
X0.5478Y-2.4173
X0.5978Y-2.4173
X0.6478Y-2.4173
X-0.3585Y-2.4173
X-0.3085Y-2.4173
X-0.2585Y-2.4173
X-0.2085Y-2.4173
X0.7833Y-1.9252
X0.8333Y-1.9252
X0.8833Y-1.9252
X0.9333Y-1.9252
X1.0687Y-1.4331
X1.1187Y-1.4331
X1.1687Y-1.4331
X1.2187Y-1.4331
X-0.3585Y-0.9409
X-0.3085Y-0.9409
X-0.2585Y-0.9409
X-0.2085Y-0.9409
X-0.6439Y-3.4016
X-0.5939Y-3.4016
X-0.5439Y-3.4016
X-0.4939Y-3.4016
X-0.073Y-0.9409
X-0.023Y-0.9409
X0.027Y-0.9409
X0.077Y-0.9409
X-1.2148Y-2.9094
X-1.1648Y-2.9094
X-1.1148Y-2.9094
X-1.0648Y-2.9094
X0.7833Y-3.4016
X0.8333Y-3.4016
X0.8833Y-3.4016
X0.9333Y-3.4016
X-0.6439Y-2.9094
X-0.5939Y-2.9094
X-0.5439Y-2.9094
X-0.4939Y-2.9094
X0.2124Y-2.4173
X0.2624Y-2.4173
X0.3124Y-2.4173
X0.3624Y-2.4173
X0.7833Y-0.9409
X0.8333Y-0.9409
X0.8833Y-0.9409
X0.9333Y-0.9409
X-0.9293Y-3.8937
X-0.8793Y-3.8937
X-0.8293Y-3.8937
X-0.7793Y-3.8937
X0.7833Y-2.4173
X0.8333Y-2.4173
X0.8833Y-2.4173
X0.9333Y-2.4173
X-0.073Y-1.4331
X-0.023Y-1.4331
X0.027Y-1.4331
X0.077Y-1.4331
X-1.2148Y-1.9252
X-1.1648Y-1.9252
X-1.1148Y-1.9252
X-1.0648Y-1.9252
X-0.6439Y-2.4173
X-0.5939Y-2.4173
X-0.5439Y-2.4173
X-0.4939Y-2.4173
X-0.9293Y-0.9409
X-0.8793Y-0.9409
X-0.8293Y-0.9409
X-0.7793Y-0.9409
X-0.9293Y-2.9094
X-0.8793Y-2.9094
X-0.8293Y-2.9094
X-0.7793Y-2.9094
X1.0687Y-2.4173
X1.1187Y-2.4173
X1.1687Y-2.4173
X1.2187Y-2.4173
X-0.073Y-2.9094
X-0.023Y-2.9094
X0.027Y-2.9094
X0.077Y-2.9094
X-0.6439Y-1.9252
X-0.5939Y-1.9252
X-0.5439Y-1.9252
X-0.4939Y-1.9252
X0.4978Y-2.9094
X0.5478Y-2.9094
X0.5978Y-2.9094
X0.6478Y-2.9094
X-0.3585Y-3.8937
X-0.3085Y-3.8937
X-0.2585Y-3.8937
X-0.2085Y-3.8937
X-0.9293Y-3.4016
X-0.8793Y-3.4016
X-0.8293Y-3.4016
X-0.7793Y-3.4016
X-0.6439Y-1.4331
X-0.5939Y-1.4331
X-0.5439Y-1.4331
X-0.4939Y-1.4331
X0.4978Y-3.4016
X0.5478Y-3.4016
X0.5978Y-3.4016
X0.6478Y-3.4016
X0.2124Y-1.9252
X0.2624Y-1.9252
X0.3124Y-1.9252
X0.3624Y-1.9252
X-1.2148Y-0.9409
X-1.1648Y-0.9409
X-1.1148Y-0.9409
X-1.0648Y-0.9409
X0.2124Y-0.9409
X0.2624Y-0.9409
X0.3124Y-0.9409
X0.3624Y-0.9409
X-0.073Y-3.8937
X-0.023Y-3.8937
X0.027Y-3.8937
X0.077Y-3.8937
X0.7833Y-3.8937
X0.8333Y-3.8937
X0.8833Y-3.8937
X0.9333Y-3.8937
X1.0687Y-1.9252
X1.1187Y-1.9252
X1.1687Y-1.9252
X1.2187Y-1.9252
X0.2124Y-3.8937
X0.2624Y-3.8937
X0.3124Y-3.8937
X0.3624Y-3.8937
X-0.3585Y-2.9094
X-0.3085Y-2.9094
X-0.2585Y-2.9094
X-0.2085Y-2.9094
X-0.9293Y-1.9252
X-0.8793Y-1.9252
X-0.8293Y-1.9252
X-0.7793Y-1.9252
X0.4978Y-3.8937
X0.5478Y-3.8937
X0.5978Y-3.8937
X0.6478Y-3.8937
X-0.9293Y-2.4173
X-0.8793Y-2.4173
X-0.8293Y-2.4173
X-0.7793Y-2.4173
X-0.9293Y-1.4331
X-0.8793Y-1.4331
X-0.8293Y-1.4331
X-0.7793Y-1.4331
X1.0687Y-3.8937
X1.1187Y-3.8937
X1.1687Y-3.8937
X1.2187Y-3.8937
X0.4978Y-0.9409
X0.5478Y-0.9409
X0.5978Y-0.9409
X0.6478Y-0.9409
X-0.6439Y-0.9409
X-0.5939Y-0.9409
X-0.5439Y-0.9409
X-0.4939Y-0.9409
X0.2124Y-1.4331
X0.2624Y-1.4331
X0.3124Y-1.4331
X0.3624Y-1.4331
X-0.3585Y-3.4016
X-0.3085Y-3.4016
X-0.2585Y-3.4016
X-0.2085Y-3.4016
X-0.6439Y-3.8937
X-0.5939Y-3.8937
X-0.5439Y-3.8937
X-0.4939Y-3.8937
X1.0687Y-2.9094
X1.1187Y-2.9094
X1.1687Y-2.9094
X1.2187Y-2.9094
X-1.2148Y-3.8937
X-1.1648Y-3.8937
X-1.1148Y-3.8937
X-1.0648Y-3.8937
X0.2124Y-3.4016
X0.2624Y-3.4016
X0.3124Y-3.4016
X0.3624Y-3.4016
T4
X0.3866Y-0.061
X0.4866Y-0.061
X0.5866Y-0.061
X0.6866Y-0.061
X0.7866Y-0.061
X-0.7874Y-0.061
X-0.6874Y-0.061
X-0.5874Y-0.061
X-0.4874Y-0.061
X-0.3874Y-0.061
T0
M30
