G04 #@! TF.GenerationSoftware,KiCad,Pcbnew,5.1.4+dfsg1-1*
G04 #@! TF.CreationDate,2019-12-22T16:06:28+01:00*
G04 #@! TF.ProjectId,masonjar,6d61736f-6e6a-4617-922e-6b696361645f,rev?*
G04 #@! TF.SameCoordinates,Original*
G04 #@! TF.FileFunction,Paste,Bot*
G04 #@! TF.FilePolarity,Positive*
%FSLAX46Y46*%
G04 Gerber Fmt 4.6, Leading zero omitted, Abs format (unit mm)*
G04 Created by KiCad (PCBNEW 5.1.4+dfsg1-1) date 2019-12-22 16:06:28*
%MOMM*%
%LPD*%
G04 APERTURE LIST*
%ADD10R,1.550000X1.300000*%
%ADD11C,0.100000*%
%ADD12C,0.975000*%
%ADD13C,0.590000*%
G04 APERTURE END LIST*
D10*
X20975000Y-11750000D03*
X20975000Y-16250000D03*
X13025000Y-16250000D03*
X13025000Y-11750000D03*
X-13025000Y-11750000D03*
X-13025000Y-16250000D03*
X-20975000Y-16250000D03*
X-20975000Y-11750000D03*
D11*
G36*
X-22244858Y-17851174D02*
G01*
X-22221197Y-17854684D01*
X-22197993Y-17860496D01*
X-22175471Y-17868554D01*
X-22153847Y-17878782D01*
X-22133330Y-17891079D01*
X-22114117Y-17905329D01*
X-22096393Y-17921393D01*
X-22080329Y-17939117D01*
X-22066079Y-17958330D01*
X-22053782Y-17978847D01*
X-22043554Y-18000471D01*
X-22035496Y-18022993D01*
X-22029684Y-18046197D01*
X-22026174Y-18069858D01*
X-22025000Y-18093750D01*
X-22025000Y-19006250D01*
X-22026174Y-19030142D01*
X-22029684Y-19053803D01*
X-22035496Y-19077007D01*
X-22043554Y-19099529D01*
X-22053782Y-19121153D01*
X-22066079Y-19141670D01*
X-22080329Y-19160883D01*
X-22096393Y-19178607D01*
X-22114117Y-19194671D01*
X-22133330Y-19208921D01*
X-22153847Y-19221218D01*
X-22175471Y-19231446D01*
X-22197993Y-19239504D01*
X-22221197Y-19245316D01*
X-22244858Y-19248826D01*
X-22268750Y-19250000D01*
X-22756250Y-19250000D01*
X-22780142Y-19248826D01*
X-22803803Y-19245316D01*
X-22827007Y-19239504D01*
X-22849529Y-19231446D01*
X-22871153Y-19221218D01*
X-22891670Y-19208921D01*
X-22910883Y-19194671D01*
X-22928607Y-19178607D01*
X-22944671Y-19160883D01*
X-22958921Y-19141670D01*
X-22971218Y-19121153D01*
X-22981446Y-19099529D01*
X-22989504Y-19077007D01*
X-22995316Y-19053803D01*
X-22998826Y-19030142D01*
X-23000000Y-19006250D01*
X-23000000Y-18093750D01*
X-22998826Y-18069858D01*
X-22995316Y-18046197D01*
X-22989504Y-18022993D01*
X-22981446Y-18000471D01*
X-22971218Y-17978847D01*
X-22958921Y-17958330D01*
X-22944671Y-17939117D01*
X-22928607Y-17921393D01*
X-22910883Y-17905329D01*
X-22891670Y-17891079D01*
X-22871153Y-17878782D01*
X-22849529Y-17868554D01*
X-22827007Y-17860496D01*
X-22803803Y-17854684D01*
X-22780142Y-17851174D01*
X-22756250Y-17850000D01*
X-22268750Y-17850000D01*
X-22244858Y-17851174D01*
X-22244858Y-17851174D01*
G37*
D12*
X-22512500Y-18550000D03*
D11*
G36*
X-24119858Y-17851174D02*
G01*
X-24096197Y-17854684D01*
X-24072993Y-17860496D01*
X-24050471Y-17868554D01*
X-24028847Y-17878782D01*
X-24008330Y-17891079D01*
X-23989117Y-17905329D01*
X-23971393Y-17921393D01*
X-23955329Y-17939117D01*
X-23941079Y-17958330D01*
X-23928782Y-17978847D01*
X-23918554Y-18000471D01*
X-23910496Y-18022993D01*
X-23904684Y-18046197D01*
X-23901174Y-18069858D01*
X-23900000Y-18093750D01*
X-23900000Y-19006250D01*
X-23901174Y-19030142D01*
X-23904684Y-19053803D01*
X-23910496Y-19077007D01*
X-23918554Y-19099529D01*
X-23928782Y-19121153D01*
X-23941079Y-19141670D01*
X-23955329Y-19160883D01*
X-23971393Y-19178607D01*
X-23989117Y-19194671D01*
X-24008330Y-19208921D01*
X-24028847Y-19221218D01*
X-24050471Y-19231446D01*
X-24072993Y-19239504D01*
X-24096197Y-19245316D01*
X-24119858Y-19248826D01*
X-24143750Y-19250000D01*
X-24631250Y-19250000D01*
X-24655142Y-19248826D01*
X-24678803Y-19245316D01*
X-24702007Y-19239504D01*
X-24724529Y-19231446D01*
X-24746153Y-19221218D01*
X-24766670Y-19208921D01*
X-24785883Y-19194671D01*
X-24803607Y-19178607D01*
X-24819671Y-19160883D01*
X-24833921Y-19141670D01*
X-24846218Y-19121153D01*
X-24856446Y-19099529D01*
X-24864504Y-19077007D01*
X-24870316Y-19053803D01*
X-24873826Y-19030142D01*
X-24875000Y-19006250D01*
X-24875000Y-18093750D01*
X-24873826Y-18069858D01*
X-24870316Y-18046197D01*
X-24864504Y-18022993D01*
X-24856446Y-18000471D01*
X-24846218Y-17978847D01*
X-24833921Y-17958330D01*
X-24819671Y-17939117D01*
X-24803607Y-17921393D01*
X-24785883Y-17905329D01*
X-24766670Y-17891079D01*
X-24746153Y-17878782D01*
X-24724529Y-17868554D01*
X-24702007Y-17860496D01*
X-24678803Y-17854684D01*
X-24655142Y-17851174D01*
X-24631250Y-17850000D01*
X-24143750Y-17850000D01*
X-24119858Y-17851174D01*
X-24119858Y-17851174D01*
G37*
D12*
X-24387500Y-18550000D03*
D11*
G36*
X-22513042Y-12490710D02*
G01*
X-22498724Y-12492834D01*
X-22484683Y-12496351D01*
X-22471054Y-12501228D01*
X-22457969Y-12507417D01*
X-22445553Y-12514858D01*
X-22433927Y-12523481D01*
X-22423202Y-12533202D01*
X-22413481Y-12543927D01*
X-22404858Y-12555553D01*
X-22397417Y-12567969D01*
X-22391228Y-12581054D01*
X-22386351Y-12594683D01*
X-22382834Y-12608724D01*
X-22380710Y-12623042D01*
X-22380000Y-12637500D01*
X-22380000Y-12932500D01*
X-22380710Y-12946958D01*
X-22382834Y-12961276D01*
X-22386351Y-12975317D01*
X-22391228Y-12988946D01*
X-22397417Y-13002031D01*
X-22404858Y-13014447D01*
X-22413481Y-13026073D01*
X-22423202Y-13036798D01*
X-22433927Y-13046519D01*
X-22445553Y-13055142D01*
X-22457969Y-13062583D01*
X-22471054Y-13068772D01*
X-22484683Y-13073649D01*
X-22498724Y-13077166D01*
X-22513042Y-13079290D01*
X-22527500Y-13080000D01*
X-22872500Y-13080000D01*
X-22886958Y-13079290D01*
X-22901276Y-13077166D01*
X-22915317Y-13073649D01*
X-22928946Y-13068772D01*
X-22942031Y-13062583D01*
X-22954447Y-13055142D01*
X-22966073Y-13046519D01*
X-22976798Y-13036798D01*
X-22986519Y-13026073D01*
X-22995142Y-13014447D01*
X-23002583Y-13002031D01*
X-23008772Y-12988946D01*
X-23013649Y-12975317D01*
X-23017166Y-12961276D01*
X-23019290Y-12946958D01*
X-23020000Y-12932500D01*
X-23020000Y-12637500D01*
X-23019290Y-12623042D01*
X-23017166Y-12608724D01*
X-23013649Y-12594683D01*
X-23008772Y-12581054D01*
X-23002583Y-12567969D01*
X-22995142Y-12555553D01*
X-22986519Y-12543927D01*
X-22976798Y-12533202D01*
X-22966073Y-12523481D01*
X-22954447Y-12514858D01*
X-22942031Y-12507417D01*
X-22928946Y-12501228D01*
X-22915317Y-12496351D01*
X-22901276Y-12492834D01*
X-22886958Y-12490710D01*
X-22872500Y-12490000D01*
X-22527500Y-12490000D01*
X-22513042Y-12490710D01*
X-22513042Y-12490710D01*
G37*
D13*
X-22700000Y-12785000D03*
D11*
G36*
X-22513042Y-11520710D02*
G01*
X-22498724Y-11522834D01*
X-22484683Y-11526351D01*
X-22471054Y-11531228D01*
X-22457969Y-11537417D01*
X-22445553Y-11544858D01*
X-22433927Y-11553481D01*
X-22423202Y-11563202D01*
X-22413481Y-11573927D01*
X-22404858Y-11585553D01*
X-22397417Y-11597969D01*
X-22391228Y-11611054D01*
X-22386351Y-11624683D01*
X-22382834Y-11638724D01*
X-22380710Y-11653042D01*
X-22380000Y-11667500D01*
X-22380000Y-11962500D01*
X-22380710Y-11976958D01*
X-22382834Y-11991276D01*
X-22386351Y-12005317D01*
X-22391228Y-12018946D01*
X-22397417Y-12032031D01*
X-22404858Y-12044447D01*
X-22413481Y-12056073D01*
X-22423202Y-12066798D01*
X-22433927Y-12076519D01*
X-22445553Y-12085142D01*
X-22457969Y-12092583D01*
X-22471054Y-12098772D01*
X-22484683Y-12103649D01*
X-22498724Y-12107166D01*
X-22513042Y-12109290D01*
X-22527500Y-12110000D01*
X-22872500Y-12110000D01*
X-22886958Y-12109290D01*
X-22901276Y-12107166D01*
X-22915317Y-12103649D01*
X-22928946Y-12098772D01*
X-22942031Y-12092583D01*
X-22954447Y-12085142D01*
X-22966073Y-12076519D01*
X-22976798Y-12066798D01*
X-22986519Y-12056073D01*
X-22995142Y-12044447D01*
X-23002583Y-12032031D01*
X-23008772Y-12018946D01*
X-23013649Y-12005317D01*
X-23017166Y-11991276D01*
X-23019290Y-11976958D01*
X-23020000Y-11962500D01*
X-23020000Y-11667500D01*
X-23019290Y-11653042D01*
X-23017166Y-11638724D01*
X-23013649Y-11624683D01*
X-23008772Y-11611054D01*
X-23002583Y-11597969D01*
X-22995142Y-11585553D01*
X-22986519Y-11573927D01*
X-22976798Y-11563202D01*
X-22966073Y-11553481D01*
X-22954447Y-11544858D01*
X-22942031Y-11537417D01*
X-22928946Y-11531228D01*
X-22915317Y-11526351D01*
X-22901276Y-11522834D01*
X-22886958Y-11520710D01*
X-22872500Y-11520000D01*
X-22527500Y-11520000D01*
X-22513042Y-11520710D01*
X-22513042Y-11520710D01*
G37*
D13*
X-22700000Y-11815000D03*
D11*
G36*
X-24119858Y-13576174D02*
G01*
X-24096197Y-13579684D01*
X-24072993Y-13585496D01*
X-24050471Y-13593554D01*
X-24028847Y-13603782D01*
X-24008330Y-13616079D01*
X-23989117Y-13630329D01*
X-23971393Y-13646393D01*
X-23955329Y-13664117D01*
X-23941079Y-13683330D01*
X-23928782Y-13703847D01*
X-23918554Y-13725471D01*
X-23910496Y-13747993D01*
X-23904684Y-13771197D01*
X-23901174Y-13794858D01*
X-23900000Y-13818750D01*
X-23900000Y-14306250D01*
X-23901174Y-14330142D01*
X-23904684Y-14353803D01*
X-23910496Y-14377007D01*
X-23918554Y-14399529D01*
X-23928782Y-14421153D01*
X-23941079Y-14441670D01*
X-23955329Y-14460883D01*
X-23971393Y-14478607D01*
X-23989117Y-14494671D01*
X-24008330Y-14508921D01*
X-24028847Y-14521218D01*
X-24050471Y-14531446D01*
X-24072993Y-14539504D01*
X-24096197Y-14545316D01*
X-24119858Y-14548826D01*
X-24143750Y-14550000D01*
X-25056250Y-14550000D01*
X-25080142Y-14548826D01*
X-25103803Y-14545316D01*
X-25127007Y-14539504D01*
X-25149529Y-14531446D01*
X-25171153Y-14521218D01*
X-25191670Y-14508921D01*
X-25210883Y-14494671D01*
X-25228607Y-14478607D01*
X-25244671Y-14460883D01*
X-25258921Y-14441670D01*
X-25271218Y-14421153D01*
X-25281446Y-14399529D01*
X-25289504Y-14377007D01*
X-25295316Y-14353803D01*
X-25298826Y-14330142D01*
X-25300000Y-14306250D01*
X-25300000Y-13818750D01*
X-25298826Y-13794858D01*
X-25295316Y-13771197D01*
X-25289504Y-13747993D01*
X-25281446Y-13725471D01*
X-25271218Y-13703847D01*
X-25258921Y-13683330D01*
X-25244671Y-13664117D01*
X-25228607Y-13646393D01*
X-25210883Y-13630329D01*
X-25191670Y-13616079D01*
X-25171153Y-13603782D01*
X-25149529Y-13593554D01*
X-25127007Y-13585496D01*
X-25103803Y-13579684D01*
X-25080142Y-13576174D01*
X-25056250Y-13575000D01*
X-24143750Y-13575000D01*
X-24119858Y-13576174D01*
X-24119858Y-13576174D01*
G37*
D12*
X-24600000Y-14062500D03*
D11*
G36*
X-24119858Y-15451174D02*
G01*
X-24096197Y-15454684D01*
X-24072993Y-15460496D01*
X-24050471Y-15468554D01*
X-24028847Y-15478782D01*
X-24008330Y-15491079D01*
X-23989117Y-15505329D01*
X-23971393Y-15521393D01*
X-23955329Y-15539117D01*
X-23941079Y-15558330D01*
X-23928782Y-15578847D01*
X-23918554Y-15600471D01*
X-23910496Y-15622993D01*
X-23904684Y-15646197D01*
X-23901174Y-15669858D01*
X-23900000Y-15693750D01*
X-23900000Y-16181250D01*
X-23901174Y-16205142D01*
X-23904684Y-16228803D01*
X-23910496Y-16252007D01*
X-23918554Y-16274529D01*
X-23928782Y-16296153D01*
X-23941079Y-16316670D01*
X-23955329Y-16335883D01*
X-23971393Y-16353607D01*
X-23989117Y-16369671D01*
X-24008330Y-16383921D01*
X-24028847Y-16396218D01*
X-24050471Y-16406446D01*
X-24072993Y-16414504D01*
X-24096197Y-16420316D01*
X-24119858Y-16423826D01*
X-24143750Y-16425000D01*
X-25056250Y-16425000D01*
X-25080142Y-16423826D01*
X-25103803Y-16420316D01*
X-25127007Y-16414504D01*
X-25149529Y-16406446D01*
X-25171153Y-16396218D01*
X-25191670Y-16383921D01*
X-25210883Y-16369671D01*
X-25228607Y-16353607D01*
X-25244671Y-16335883D01*
X-25258921Y-16316670D01*
X-25271218Y-16296153D01*
X-25281446Y-16274529D01*
X-25289504Y-16252007D01*
X-25295316Y-16228803D01*
X-25298826Y-16205142D01*
X-25300000Y-16181250D01*
X-25300000Y-15693750D01*
X-25298826Y-15669858D01*
X-25295316Y-15646197D01*
X-25289504Y-15622993D01*
X-25281446Y-15600471D01*
X-25271218Y-15578847D01*
X-25258921Y-15558330D01*
X-25244671Y-15539117D01*
X-25228607Y-15521393D01*
X-25210883Y-15505329D01*
X-25191670Y-15491079D01*
X-25171153Y-15478782D01*
X-25149529Y-15468554D01*
X-25127007Y-15460496D01*
X-25103803Y-15454684D01*
X-25080142Y-15451174D01*
X-25056250Y-15450000D01*
X-24143750Y-15450000D01*
X-24119858Y-15451174D01*
X-24119858Y-15451174D01*
G37*
D12*
X-24600000Y-15937500D03*
D11*
G36*
X-23613042Y-12490710D02*
G01*
X-23598724Y-12492834D01*
X-23584683Y-12496351D01*
X-23571054Y-12501228D01*
X-23557969Y-12507417D01*
X-23545553Y-12514858D01*
X-23533927Y-12523481D01*
X-23523202Y-12533202D01*
X-23513481Y-12543927D01*
X-23504858Y-12555553D01*
X-23497417Y-12567969D01*
X-23491228Y-12581054D01*
X-23486351Y-12594683D01*
X-23482834Y-12608724D01*
X-23480710Y-12623042D01*
X-23480000Y-12637500D01*
X-23480000Y-12932500D01*
X-23480710Y-12946958D01*
X-23482834Y-12961276D01*
X-23486351Y-12975317D01*
X-23491228Y-12988946D01*
X-23497417Y-13002031D01*
X-23504858Y-13014447D01*
X-23513481Y-13026073D01*
X-23523202Y-13036798D01*
X-23533927Y-13046519D01*
X-23545553Y-13055142D01*
X-23557969Y-13062583D01*
X-23571054Y-13068772D01*
X-23584683Y-13073649D01*
X-23598724Y-13077166D01*
X-23613042Y-13079290D01*
X-23627500Y-13080000D01*
X-23972500Y-13080000D01*
X-23986958Y-13079290D01*
X-24001276Y-13077166D01*
X-24015317Y-13073649D01*
X-24028946Y-13068772D01*
X-24042031Y-13062583D01*
X-24054447Y-13055142D01*
X-24066073Y-13046519D01*
X-24076798Y-13036798D01*
X-24086519Y-13026073D01*
X-24095142Y-13014447D01*
X-24102583Y-13002031D01*
X-24108772Y-12988946D01*
X-24113649Y-12975317D01*
X-24117166Y-12961276D01*
X-24119290Y-12946958D01*
X-24120000Y-12932500D01*
X-24120000Y-12637500D01*
X-24119290Y-12623042D01*
X-24117166Y-12608724D01*
X-24113649Y-12594683D01*
X-24108772Y-12581054D01*
X-24102583Y-12567969D01*
X-24095142Y-12555553D01*
X-24086519Y-12543927D01*
X-24076798Y-12533202D01*
X-24066073Y-12523481D01*
X-24054447Y-12514858D01*
X-24042031Y-12507417D01*
X-24028946Y-12501228D01*
X-24015317Y-12496351D01*
X-24001276Y-12492834D01*
X-23986958Y-12490710D01*
X-23972500Y-12490000D01*
X-23627500Y-12490000D01*
X-23613042Y-12490710D01*
X-23613042Y-12490710D01*
G37*
D13*
X-23800000Y-12785000D03*
D11*
G36*
X-23613042Y-11520710D02*
G01*
X-23598724Y-11522834D01*
X-23584683Y-11526351D01*
X-23571054Y-11531228D01*
X-23557969Y-11537417D01*
X-23545553Y-11544858D01*
X-23533927Y-11553481D01*
X-23523202Y-11563202D01*
X-23513481Y-11573927D01*
X-23504858Y-11585553D01*
X-23497417Y-11597969D01*
X-23491228Y-11611054D01*
X-23486351Y-11624683D01*
X-23482834Y-11638724D01*
X-23480710Y-11653042D01*
X-23480000Y-11667500D01*
X-23480000Y-11962500D01*
X-23480710Y-11976958D01*
X-23482834Y-11991276D01*
X-23486351Y-12005317D01*
X-23491228Y-12018946D01*
X-23497417Y-12032031D01*
X-23504858Y-12044447D01*
X-23513481Y-12056073D01*
X-23523202Y-12066798D01*
X-23533927Y-12076519D01*
X-23545553Y-12085142D01*
X-23557969Y-12092583D01*
X-23571054Y-12098772D01*
X-23584683Y-12103649D01*
X-23598724Y-12107166D01*
X-23613042Y-12109290D01*
X-23627500Y-12110000D01*
X-23972500Y-12110000D01*
X-23986958Y-12109290D01*
X-24001276Y-12107166D01*
X-24015317Y-12103649D01*
X-24028946Y-12098772D01*
X-24042031Y-12092583D01*
X-24054447Y-12085142D01*
X-24066073Y-12076519D01*
X-24076798Y-12066798D01*
X-24086519Y-12056073D01*
X-24095142Y-12044447D01*
X-24102583Y-12032031D01*
X-24108772Y-12018946D01*
X-24113649Y-12005317D01*
X-24117166Y-11991276D01*
X-24119290Y-11976958D01*
X-24120000Y-11962500D01*
X-24120000Y-11667500D01*
X-24119290Y-11653042D01*
X-24117166Y-11638724D01*
X-24113649Y-11624683D01*
X-24108772Y-11611054D01*
X-24102583Y-11597969D01*
X-24095142Y-11585553D01*
X-24086519Y-11573927D01*
X-24076798Y-11563202D01*
X-24066073Y-11553481D01*
X-24054447Y-11544858D01*
X-24042031Y-11537417D01*
X-24028946Y-11531228D01*
X-24015317Y-11526351D01*
X-24001276Y-11522834D01*
X-23986958Y-11520710D01*
X-23972500Y-11520000D01*
X-23627500Y-11520000D01*
X-23613042Y-11520710D01*
X-23613042Y-11520710D01*
G37*
D13*
X-23800000Y-11815000D03*
M02*
